<svg xmlns="http://www.w3.org/2000/svg" width="1022" height="1017" viewBox="0 0 1022 1017" version="1.1">
	<path d="M 0.760 0.750 C 0.563 1.163, 0.263 229.988, 0.093 509.251 L -0.216 1017.002 511.142 1016.751 L 1022.500 1016.500 1022.500 508.250 L 1022.500 0 511.809 0 C 230.929 0, 0.957 0.337, 0.760 0.750 M 498 85.532 C 470.728 91.583, 453.690 116.412, 459.115 142.201 C 462.687 159.185, 478.364 174.781, 492.409 175.323 L 497 175.500 497 180.600 L 497 185.701 488.016 186.338 C 464.568 188.003, 437.448 197.265, 416.500 210.762 C 399.260 221.870, 380.869 238.143, 371.697 250.405 C 367.956 255.407, 363.867 260.850, 362.612 262.500 C 358.790 267.523, 351.323 281.019, 347.113 290.513 C 342.297 301.374, 338.998 313.531, 335.447 333.500 C 333.023 347.133, 332.829 350.050, 333.328 365.500 C 334.336 396.689, 342.439 421.226, 360.985 449.246 C 370.853 464.154, 389.092 483.845, 403.611 495.266 C 407.600 498.404, 423.740 508.828, 427.737 510.848 C 433.265 513.642, 452.570 520.669, 459.543 522.425 C 467.286 524.376, 487.015 527.319, 487.707 526.626 C 487.998 526.335, 487.170 525.884, 485.868 525.623 C 484.566 525.362, 477.220 523.949, 469.544 522.482 C 439.137 516.671, 419.572 506.512, 392.757 482.611 C 386.132 476.706, 380.119 470.016, 373.973 461.713 C 365.716 450.559, 356.056 435.635, 362.098 443.368 C 385.651 473.513, 401.376 487.609, 431.857 505.899 C 446.060 514.421, 470.528 520.318, 499 522.079 C 518.600 523.292, 529.399 522.903, 540 520.604 C 547.122 519.059, 558.148 516.186, 558.568 515.765 C 558.714 515.619, 554.934 515.500, 550.167 515.500 C 542.399 515.500, 541.516 515.311, 541.650 513.681 C 541.759 512.363, 541.347 512.047, 540.150 512.534 C 539.243 512.904, 534.675 513.371, 530 513.573 L 521.500 513.941 531.500 512.518 C 564.330 507.846, 590.426 495.990, 613.984 475.044 C 628.408 462.219, 633.617 456.059, 644.096 439.433 C 654.733 422.557, 661.625 405.053, 666.121 383.500 C 667.936 374.801, 668.139 371.223, 667.678 356 C 666.869 329.250, 663.196 312.250, 654.444 294.750 C 652.038 289.938, 650.256 286, 650.485 286 C 650.715 286, 652.489 288.838, 654.429 292.307 C 666.273 313.486, 672.592 352.686, 668.394 378.940 C 668.037 381.173, 668.056 383, 668.438 383 C 670.084 383, 673 380.818, 673 379.587 C 673 378.849, 673.637 377.716, 674.416 377.069 C 675.541 376.136, 675.929 376.266, 676.300 377.697 C 676.702 379.245, 676.784 379.262, 676.884 377.821 C 676.948 376.898, 676.294 375.437, 675.432 374.574 C 674.429 373.572, 674.108 372.235, 674.541 370.871 C 675.008 369.400, 675.452 369.114, 675.971 369.952 C 676.476 370.770, 676.927 370.404, 677.348 368.835 C 678.231 365.534, 677.987 342.486, 677.004 336.500 C 676.447 333.106, 676.357 334.924, 676.722 342.162 C 677.019 348.026, 676.906 354.101, 676.472 355.662 L 675.683 358.500 674.784 354.500 C 674.289 352.300, 673.632 348.925, 673.324 347 C 673.015 345.075, 672.411 343.050, 671.980 342.500 C 670.888 341.106, 670.372 329.772, 671.331 328.250 C 671.786 327.527, 671.649 327, 671.006 327 C 670.261 327, 670.055 325.097, 670.381 321.250 C 670.649 318.087, 670.898 315.136, 670.934 314.691 C 670.970 314.246, 671.468 314.171, 672.040 314.525 C 673.545 315.455, 672.355 311.162, 667.890 299.551 C 665.786 294.080, 664.213 289.454, 664.396 289.271 C 664.896 288.770, 668.874 298.227, 673.115 310 C 677.900 323.285, 678.105 321.789, 673.467 307.434 C 669.152 294.083, 660.025 274.918, 652.407 263.213 C 639.448 243.304, 620.964 225.132, 599.855 211.552 C 581.950 200.033, 568.059 194.524, 543.179 189.074 C 535.460 187.383, 527.354 186, 525.166 186 L 521.188 186 520.844 171.548 C 520.655 163.600, 520.050 156.646, 519.500 156.096 C 518.833 155.428, 518.600 160.245, 518.799 170.547 C 518.981 179.972, 518.723 186, 518.137 186 C 516.734 186, 515.824 179.288, 515.551 166.934 C 515.392 159.754, 515.682 155.935, 516.405 155.686 C 517.007 155.479, 514.572 154.990, 510.992 154.601 C 506.570 154.120, 503.206 154.311, 500.492 155.197 L 496.500 156.502 496.206 163.191 L 495.911 169.881 487.963 165.861 C 479.245 161.451, 475.782 157.952, 471.450 149.174 C 469.286 144.788, 468.549 141.647, 468.204 135.338 C 467.641 125.035, 469.584 118.439, 475.895 109.224 C 480.123 103.051, 481.237 102.132, 489.500 98.011 C 498.463 93.541, 498.544 93.522, 509.152 93.511 C 515.011 93.505, 519.286 93.169, 518.652 92.765 C 516.585 91.447, 519.829 91.902, 523.532 93.449 C 527.121 94.948, 528.333 96.336, 525.250 95.414 C 524.288 95.127, 525.996 96.227, 529.047 97.859 C 532.187 99.539, 537.454 103.858, 541.183 107.811 C 549.087 116.189, 551.332 121.760, 551.219 132.705 C 551.086 145.554, 545.384 154.476, 530.750 164.734 C 525.668 168.296, 523 170.826, 523 172.083 C 523 174.283, 524.206 174.493, 527.316 172.836 C 529.349 171.753, 529.397 171.798, 528.008 173.481 C 526.623 175.158, 526.695 175.235, 529.008 174.552 C 535.094 172.752, 540.025 169.550, 547.143 162.775 C 553.382 156.835, 555.190 154.399, 556.989 149.500 C 561.566 137.042, 560.640 124.117, 554.271 111.549 C 551.076 105.244, 540.134 94.344, 533.395 90.753 C 523.306 85.377, 508.525 83.197, 498 85.532 M 501.500 124.656 C 494.777 125.407, 487.911 127.232, 486.500 128.643 C 483.855 131.288, 485.075 147.692, 488.054 149.533 C 488.592 149.866, 490.151 150.341, 491.516 150.589 C 493.934 151.027, 494.003 150.874, 494.131 144.770 L 494.262 138.500 495.003 144.289 C 495.831 150.756, 496.238 151.506, 498.457 150.655 C 499.680 150.186, 500.028 148.137, 500.136 140.781 L 500.272 131.500 501.037 138.500 C 502.961 156.100, 507.619 155.069, 506.260 137.343 C 505.530 127.817, 506.935 130.012, 508.339 140.591 C 509.966 152.851, 511.589 152.546, 512.568 139.796 C 513.246 130.957, 513.466 130.066, 514.121 133.500 C 514.541 135.700, 514.911 140.313, 514.942 143.750 C 515 149.987, 516.228 152.011, 517.370 147.750 C 517.701 146.512, 518.031 141.450, 518.101 136.500 C 518.209 128.989, 518.367 128.162, 519.057 131.500 C 519.512 133.700, 519.911 138.762, 519.942 142.750 C 520.042 155.237, 522.867 150.025, 523.059 137 C 523.168 129.626, 524.766 125.695, 525.092 132 C 525.220 134.475, 525.212 139.589, 525.074 143.363 C 524.901 148.109, 525.160 150.019, 525.912 149.554 C 526.543 149.165, 527.030 145.439, 527.070 140.691 C 527.155 130.828, 528.370 126.498, 529.471 132.138 C 529.861 134.139, 530.027 138.731, 529.840 142.342 C 529.653 145.954, 529.798 148.592, 530.163 148.204 C 530.527 147.817, 530.977 142.807, 531.163 137.072 L 531.500 126.644 528.500 125.796 C 525.299 124.892, 506.501 124.098, 501.500 124.656 M 491.500 200.115 C 470.730 202.065, 450.074 208.152, 433.559 217.190 C 422.868 223.040, 413.415 229.623, 409.595 233.878 C 406.650 237.159, 409.258 236.384, 412.480 233.021 C 416.230 229.107, 426.921 221.981, 437.226 216.526 C 458.062 205.496, 488.152 199.699, 520 200.578 L 528.500 200.812 522 200.023 C 513.685 199.013, 502.890 199.046, 491.500 200.115 M 486.500 205.563 C 451.808 210.268, 425.819 222.919, 400.975 247.193 C 363.847 283.469, 344.980 337.948, 353.913 383.081 C 356.346 395.374, 363.870 417.694, 367.357 422.964 C 368.681 424.963, 370.972 428.985, 372.450 431.902 C 377.188 441.251, 389.188 456.952, 398.021 465.357 C 421.644 487.837, 443.440 499.545, 472.660 505.450 C 506.672 512.323, 528.041 510.978, 561.248 499.873 C 573.278 495.850, 578.125 493.610, 587.546 487.720 C 613.468 471.516, 640.539 441.728, 650.010 418.986 C 654.971 407.074, 655.895 404.291, 659.629 390 C 663.792 374.072, 665.087 356.029, 663.082 341.895 C 660.349 322.635, 652.822 298.011, 646.698 288.299 C 645.380 286.209, 642.418 281.244, 640.115 277.264 C 633.291 265.473, 620.067 250.401, 607.357 239.931 C 595.348 230.038, 591.844 227.597, 582.500 222.618 C 554.275 207.578, 518.498 201.222, 486.500 205.563 M 588 221.419 C 588 221.664, 591.216 224.130, 595.148 226.900 C 613.181 239.605, 632.094 258.700, 642.741 274.951 C 649.372 285.071, 651.439 287.473, 647.517 280.500 C 639.253 265.806, 619.632 243.607, 605.667 233.154 C 596.280 226.126, 588 220.627, 588 221.419 M 493.214 223.750 C 494.697 225.452, 500 242.548, 500 245.625 C 500 247.763, 494.159 264.104, 492.816 265.722 C 491.166 267.710, 492.016 267.957, 498.283 267.310 C 503.457 266.776, 504 266.496, 504 264.360 C 504 261.361, 505.576 261.288, 506.370 264.250 C 507.160 267.199, 507.019 280.999, 506.126 288.128 C 505.583 292.466, 504.670 294.611, 502.144 297.489 C 500.341 299.542, 498.448 302.322, 497.936 303.667 C 496.674 306.987, 498.896 311.090, 503.214 313.416 L 506.584 315.231 506.165 330.822 L 505.746 346.413 500.373 351.493 C 495.493 356.108, 495 356.970, 495 360.883 C 495 368.462, 500.857 374, 508.874 374 C 513.544 374, 517.904 370.830, 520.364 365.646 L 521.966 362.269 531.733 361.752 C 537.105 361.468, 542.400 360.951, 543.500 360.604 C 544.600 360.256, 543.250 361.076, 540.500 362.425 C 537.750 363.774, 535.782 364.905, 536.127 364.939 C 536.472 364.972, 541.140 363.650, 546.500 362 C 551.860 360.350, 557.906 359, 559.935 359 C 562.874 359, 564.075 359.610, 565.842 362 C 567.205 363.844, 568.960 365, 570.395 365 C 572.643 365, 577.380 361.996, 579.538 359.203 C 580.193 358.355, 584.447 357.506, 591.038 356.907 C 596.792 356.384, 606 355.531, 611.500 355.012 C 617 354.492, 626.788 354.052, 633.250 354.034 C 644.389 354.002, 645 354.105, 645 356.023 C 645 358.014, 644.644 358.035, 622.831 357.360 C 601.995 356.716, 600.701 356.779, 601.331 358.419 C 601.699 359.379, 602 360.352, 602 360.582 C 602 360.812, 609.362 361, 618.360 361 C 637.314 361, 644 361.682, 644 363.616 C 644 364.691, 639.744 365.014, 622.750 365.230 C 602.367 365.489, 601.488 365.582, 601.212 367.500 C 600.931 369.455, 601.400 369.492, 622.160 369.160 C 641.603 368.849, 643.505 368.970, 644.698 370.601 C 645.813 372.126, 646 371.368, 646 365.331 C 646 361.452, 646.279 356.242, 646.621 353.752 L 647.241 349.224 642.871 350.069 C 640.467 350.533, 633.100 350.947, 626.500 350.988 C 619.900 351.030, 609.775 351.710, 604 352.500 C 598.225 353.290, 590.779 353.951, 587.453 353.968 C 581.699 353.998, 581.217 353.806, 577.500 350 C 575.352 347.800, 572.846 346, 571.932 346 C 569.592 346, 565.237 349.642, 563.454 353.088 C 561.982 355.935, 561.771 356, 553.961 356 C 549.452 356, 545.130 355.474, 544.038 354.792 C 542.523 353.846, 540.955 353.854, 536.802 354.831 C 522.610 358.168, 523.373 358.249, 518.263 352.852 C 515.736 350.184, 512.832 348, 511.810 348 C 510.063 348, 509.967 347.022, 510.225 331.778 C 510.499 315.591, 510.505 315.554, 513 314.317 C 519.864 310.914, 520.837 304.686, 515.561 297.914 C 511.356 292.516, 510.056 287.243, 510.024 275.448 L 510 266.396 516.750 267.102 C 523.769 267.835, 525.473 267.528, 522.971 265.983 C 521.750 265.228, 521.500 261.410, 521.500 243.501 L 521.500 221.928 513.500 222.214 L 505.500 222.500 505.236 225.500 C 504.713 231.441, 503.894 235, 503.049 235 C 502.260 235, 499 226.778, 499 224.790 C 499 224.320, 500.012 223.529, 501.250 223.031 C 502.985 222.334, 502.149 222.112, 497.595 222.063 C 492.055 222.004, 491.784 222.108, 493.214 223.750 M 508.450 225.750 C 508.126 227.262, 506.766 231.200, 505.428 234.500 C 502.446 241.852, 502.445 241.551, 505.469 249.230 C 506.827 252.679, 508.580 257.750, 509.365 260.500 C 510.719 265.245, 510.797 264.416, 510.896 244.250 C 510.961 230.954, 510.633 223, 510.019 223 C 509.480 223, 508.773 224.238, 508.450 225.750 M 515.015 242.750 C 515.024 253.613, 515.404 263.089, 515.861 263.810 C 516.910 265.463, 518 250.701, 518 234.846 C 518 224.983, 517.749 223, 516.500 223 C 515.217 223, 515.002 225.854, 515.015 242.750 M 448.500 234.293 C 446.850 234.822, 444.567 236.101, 443.426 237.136 C 442.285 238.171, 441.067 238.734, 440.719 238.386 C 440.371 238.038, 439.279 238.064, 438.293 238.444 C 436.581 239.103, 436.583 239.181, 438.345 240.170 C 440.428 241.339, 443.957 248.466, 443.955 251.500 C 443.954 253.111, 443.113 252.620, 439.636 248.976 C 437.261 246.488, 435.099 243.798, 434.832 242.997 C 434.421 241.764, 433.939 241.810, 431.674 243.294 C 428.251 245.537, 428.306 246.470, 431.950 247.979 C 435.354 249.389, 444.040 258.235, 446.264 262.558 C 448.882 267.644, 451.291 281.588, 449.976 284.044 C 448.170 287.420, 449.358 287.269, 453.583 283.586 C 456.574 280.980, 457.034 280.211, 455.531 280.336 C 453.516 280.504, 452.159 277.745, 450.521 270.154 L 449.799 266.808 456.345 271.952 L 462.891 277.097 467.195 274.925 C 472.692 272.153, 472.647 272.206, 470.752 270.740 C 469.265 269.590, 454.751 241.950, 452.500 235.982 C 451.592 233.576, 451.224 233.420, 448.500 234.293 M 443.856 237.477 C 443.075 238.258, 446.628 254.381, 448.282 257.562 C 449.948 260.766, 452.889 263.627, 457.405 266.440 C 460.226 268.197, 460.289 268.195, 459.595 266.374 C 458.327 263.044, 461.111 266.513, 463.062 270.692 C 464.088 272.893, 464.872 273.755, 464.919 272.736 C 465.024 270.447, 453.119 246.766, 449.091 241.250 C 446.159 237.235, 444.961 236.372, 443.856 237.477 M 0.468 298.500 C 0.468 329.850, 0.595 342.530, 0.750 326.679 C 0.904 310.827, 0.904 285.177, 0.749 269.679 C 0.594 254.180, 0.468 267.150, 0.468 298.500 M 577 243.109 C 577 243.719, 574.157 248.106, 570.683 252.859 C 567.209 257.612, 562.425 264.425, 560.052 268 C 557.679 271.575, 555.055 275.049, 554.220 275.719 C 552.893 276.785, 553.003 277.183, 555.101 278.888 C 557.492 280.831, 557.502 280.830, 558.103 278.669 C 558.694 276.541, 573.484 254.624, 578.618 248.268 C 580.081 246.457, 580.972 244.369, 580.645 243.518 C 579.977 241.776, 577 241.441, 577 243.109 M 390 283.896 C 390 285.734, 393.946 289.777, 399.024 293.141 C 400.386 294.043, 401.211 295.082, 400.857 295.450 C 400.018 296.323, 388.870 293.408, 388.064 292.104 C 387.723 291.552, 386.845 292.453, 386.113 294.108 C 385.381 295.762, 385.031 297.365, 385.337 297.670 C 385.642 297.975, 390.009 299.051, 395.042 300.061 C 400.075 301.070, 405.272 302.603, 406.590 303.467 C 409.900 305.636, 419.961 317.996, 420.649 320.740 C 420.960 321.975, 421.615 322.738, 422.107 322.434 C 424.319 321.067, 422.531 317.333, 416.750 311.249 C 413.313 307.631, 411.175 304.909, 412 305.200 C 412.825 305.491, 416.200 306.507, 419.500 307.459 C 422.800 308.410, 425.985 309.587, 426.577 310.074 C 427.265 310.638, 428.440 309.896, 429.827 308.020 C 432.207 304.801, 432.928 301.672, 430.800 303.800 C 430.140 304.460, 428.799 305, 427.821 305 C 425.498 305, 411.486 300.287, 407 297.997 C 403.276 296.097, 392 284.878, 392 283.074 C 392 282.483, 391.550 282, 391 282 C 390.450 282, 390 282.853, 390 283.896 M 623 287.022 C 617.605 290.877, 595.283 304.408, 591.551 306.084 C 588.753 307.341, 587.078 307.577, 585.801 306.894 C 583.241 305.523, 583.537 306.257, 587.420 310.905 C 589.302 313.156, 591.137 316.349, 591.500 317.999 C 591.862 319.650, 592.389 321, 592.670 321 C 592.952 321, 594.919 319.513, 597.041 317.697 C 601.106 314.217, 628.970 298, 630.884 298 C 632.279 298, 632.275 297.697, 630.839 294.547 C 629.534 291.682, 628.478 291.313, 627.663 293.437 C 627.359 294.227, 621.574 298.115, 614.806 302.076 C 608.037 306.038, 600.436 310.566, 597.912 312.139 C 592.786 315.336, 591 315.698, 591 313.538 C 591 312.727, 596.448 308.879, 603.250 304.888 C 620.084 295.009, 627 290.066, 627 287.914 C 627 285.275, 625.814 285.010, 623 287.022 M 511.602 299.250 C 512.309 301.272, 510.030 301.622, 506.935 299.965 C 505.274 299.076, 504.760 299.436, 503.290 302.519 C 501.251 306.794, 502.026 308.551, 506.845 310.577 C 510.037 311.919, 510.298 311.856, 513.088 309.066 C 516.651 305.503, 516.724 303.923, 513.496 300.306 C 512.002 298.633, 511.238 298.207, 511.602 299.250 M 678.528 328 C 681.502 350.533, 681.084 373.387, 677.351 392.375 C 677.008 394.121, 677.169 395.014, 677.761 394.647 C 681.347 392.432, 682.859 341.004, 679.663 330 C 678.628 326.436, 678.228 325.732, 678.528 328 M 369.358 347.750 C 369.699 349.813, 369.983 355.871, 369.989 361.213 L 370 370.927 392.501 371.213 L 415.002 371.500 415.001 365.361 L 415 359.223 411.250 358.558 C 405.700 357.574, 404 356.967, 404 355.968 C 404 354.552, 407.715 352.929, 411.778 352.571 C 415.276 352.262, 415.519 352.020, 415.815 348.543 L 416.130 344.844 413.315 346.829 C 411.767 347.920, 406.515 349.836, 401.645 351.086 C 391.367 353.724, 388.927 353.372, 376.911 347.524 C 372.928 345.586, 369.460 344, 369.204 344 C 368.948 344, 369.017 345.688, 369.358 347.750 M 242 362.132 C 242 367.766, 241.630 369.561, 240.250 370.608 C 238.751 371.746, 239.731 371.941, 247.083 371.968 C 256.088 372.002, 257.203 371.692, 256.324 369.402 C 255.964 368.464, 254.168 368, 250.893 368 C 246.667 368, 246 367.728, 246 366 C 246 364.258, 246.667 364, 251.167 364 C 254.008 364, 256.002 363.668, 255.596 363.263 C 254.810 362.476, 254.314 362.390, 249.250 362.152 C 247.095 362.051, 246 361.494, 246 360.500 C 246 359.367, 247.222 359, 251 359 C 254.778 359, 256 358.633, 256 357.500 C 256 356.675, 255.662 355.971, 255.250 355.936 C 254.838 355.900, 251.688 355.672, 248.250 355.428 L 242 354.985 242 362.132 M 264.939 357.061 C 261.516 360.484, 263.359 363.312, 270.428 365.482 C 272.232 366.036, 272.248 366.181, 270.677 367.752 C 269.106 369.323, 268.807 369.317, 265.999 367.659 C 263.408 366.128, 263 366.095, 263 367.420 C 263 369.651, 267.426 372.197, 270.654 371.823 C 274.159 371.416, 277.048 366.887, 275.435 364.328 C 274.849 363.398, 272.486 361.952, 270.185 361.112 C 264.482 359.033, 264.910 357.662, 271 358.500 C 276.491 359.255, 277.985 357.705, 273.435 355.975 C 269.539 354.494, 267.208 354.792, 264.939 357.061 M 771.325 359.475 C 767.633 363.167, 767.500 365.523, 770.773 369.250 C 774.366 373.342, 783 370.246, 783 364.866 C 783 361.794, 778.410 356, 775.977 356 C 775.330 356, 773.236 357.564, 771.325 359.475 M 387.500 358.026 C 377.538 360.751, 372.473 362.781, 372.209 364.153 C 371.957 365.462, 374.242 365.773, 387.707 366.263 C 405.036 366.893, 413 366.363, 413 364.580 C 413 363.942, 409.641 361.976, 405.535 360.210 C 398.026 356.981, 393.376 356.418, 387.500 358.026 M 736.317 360.835 C 736.640 362.449, 736.263 364.866, 735.442 366.449 C 733.574 370.050, 733.557 370, 736.631 370 C 739.107 370, 739.228 369.780, 738.681 366.250 L 738.100 362.500 740.338 365.250 C 742.898 368.397, 744 368.723, 744 366.333 C 744 365.417, 744.337 365.007, 744.750 365.424 C 745.163 365.840, 745.500 367.113, 745.500 368.252 C 745.500 371.427, 747.711 371.460, 749.340 368.309 C 751.572 363.994, 751.855 358.599, 749.871 358.215 C 748.201 357.892, 745.533 359.975, 744.725 362.232 C 744.430 363.057, 743.500 362.539, 742.063 360.750 C 740.849 359.238, 738.931 358, 737.802 358 C 736.082 358, 735.842 358.458, 736.317 360.835 M 415.500 386.591 C 413.850 387.976, 410.700 390.033, 408.500 391.161 C 401.151 394.931, 382.009 406.284, 381.045 407.445 C 379.839 408.899, 381.890 415.030, 385.801 421.662 C 388.813 426.770, 396.145 438, 396.468 438 C 396.570 438, 396.482 436.762, 396.272 435.250 C 395.912 432.652, 396.561 432.149, 408.048 426.128 C 422.256 418.682, 422.254 419.720, 408.031 432.500 C 401.920 437.992, 399.187 441.127, 399.314 442.500 C 399.416 443.600, 399.779 444.500, 400.120 444.500 C 401.247 444.500, 433.212 412.878, 432.652 412.318 C 432.006 411.673, 419.326 416.828, 409.819 421.601 C 403.271 424.889, 393.234 428.998, 391.750 428.999 C 391.337 429, 391.015 428.438, 391.034 427.750 C 391.098 425.399, 416.534 411.764, 424.500 409.811 C 427.250 409.136, 429.636 408.505, 429.801 408.408 C 429.967 408.311, 428.842 406.240, 427.301 403.806 C 425.761 401.372, 423.375 395.922, 422 391.694 C 420.625 387.466, 419.275 384.021, 419 384.039 C 418.725 384.057, 417.150 385.205, 415.500 386.591 M 401.146 399.451 C 382.149 410.861, 382.374 410.707, 383.336 411.669 C 384.283 412.617, 398.743 404.908, 410.250 397.321 C 418.815 391.673, 421.746 388.968, 419.250 389.014 C 418.837 389.021, 410.691 393.718, 401.146 399.451 M 593.706 392.717 C 592.947 394.248, 591.315 398.051, 590.080 401.168 C 588.845 404.286, 586.782 408.262, 585.497 410.004 L 583.159 413.173 589.332 416.447 C 592.727 418.248, 601.353 423.382, 608.502 427.855 C 615.651 432.328, 622.014 435.991, 622.643 435.994 C 623.630 435.999, 625.528 432.954, 624.774 432.577 C 624.623 432.502, 622.925 431.683, 621 430.758 C 616.652 428.667, 605.860 422.568, 598.815 418.220 C 590.307 412.968, 586.859 410.205, 587.963 409.523 C 588.527 409.174, 590.453 409.991, 592.244 411.337 C 594.035 412.683, 599.550 415.813, 604.500 418.291 C 609.450 420.769, 616.356 424.417, 619.846 426.398 C 623.336 428.379, 626.362 430, 626.570 430 C 626.778 430, 627.697 428.538, 628.611 426.750 C 629.526 424.962, 631.607 421.804, 633.237 419.730 C 634.866 417.657, 635.971 415.367, 635.693 414.641 C 635.414 413.915, 626.932 409.149, 616.843 404.050 C 597.328 394.185, 595.735 393.237, 596.527 391.956 C 596.805 391.506, 596.594 390.867, 596.059 390.536 C 595.523 390.205, 594.464 391.187, 593.706 392.717 M 406.500 403.644 C 389.383 414.903, 387 416.738, 387 418.659 C 387 419.849, 387.579 419.716, 389.750 418.027 C 391.262 416.850, 395.038 414.190, 398.139 412.115 C 401.240 410.041, 405.515 406.978, 407.639 405.309 C 411.882 401.974, 417.229 399.033, 420.776 398.085 C 422.705 397.569, 422.864 397.233, 421.783 395.954 C 420.666 394.632, 418.684 395.630, 406.500 403.644 M 590 403.763 C 590 405.286, 597.936 410.466, 612.477 418.433 C 620.133 422.629, 626.983 425.837, 627.699 425.562 C 629.362 424.924, 629.404 422.005, 627.750 421.984 C 625.967 421.962, 603.923 410.764, 598.630 407.192 C 593.694 403.861, 590 402.393, 590 403.763 M 0.493 720.500 C 0.493 883.850, 0.609 950.526, 0.750 868.669 C 0.891 786.812, 0.891 653.162, 0.750 571.669 C 0.609 490.176, 0.493 557.150, 0.493 720.500 M 448 430.779 C 448 431.785, 446.582 434.834, 444.849 437.554 C 443.116 440.274, 439.716 445.841, 437.294 449.925 C 431.570 459.577, 427.116 465.145, 425.662 464.467 C 425.023 464.169, 425.175 464.399, 426 464.978 C 428.058 466.423, 444.245 476, 444.628 476 C 444.798 476, 444.710 475.409, 444.433 474.686 C 444.156 473.963, 446.404 469.576, 449.428 464.936 C 458.181 451.511, 458.177 451.513, 455.467 461.500 C 454.124 466.450, 453.019 470.803, 453.012 471.173 C 453.006 471.544, 451.794 473.280, 450.319 475.033 L 447.638 478.219 450.069 480.087 C 453.489 482.715, 455 482.459, 455 479.250 C 455 475.059, 462.225 453.647, 466.912 443.945 C 468.124 441.437, 468.446 439.775, 467.796 439.374 C 467.235 439.027, 466.489 439.161, 466.138 439.670 C 461.444 446.482, 458.468 450.258, 454.783 454.076 C 452.354 456.593, 448.687 461.656, 446.634 465.326 C 443.148 471.560, 440.941 473.332, 439.522 471.035 C 439.194 470.504, 440.007 468.367, 441.329 466.285 C 442.651 464.203, 445.401 459.442, 447.440 455.705 C 449.480 451.968, 453.343 446.010, 456.027 442.465 C 460.526 436.520, 460.760 435.942, 459.033 435.017 C 457.440 434.165, 456.419 434.950, 452.211 440.258 C 445.606 448.591, 440.702 456.467, 438.520 462.250 C 437.197 465.757, 436.200 467, 434.709 467 C 432.816 467, 432.794 466.886, 434.345 465.171 C 435.255 464.165, 436 463.036, 436 462.661 C 436 461.289, 444.226 445.337, 447.811 439.759 C 450.058 436.262, 452.207 434.014, 453.309 434.009 C 455.693 433.997, 454.596 432.359, 450.937 430.467 C 448.204 429.054, 448 429.076, 448 430.779 M 556.015 435.082 C 555.989 436.062, 563.595 457.025, 567.405 466.472 C 569.382 471.376, 571 476.180, 571 477.148 C 571 478.814, 571.158 478.817, 573.995 477.203 C 576.017 476.053, 576.498 475.394, 575.476 475.173 C 573.808 474.813, 570.969 469.695, 568.999 463.500 C 568.299 461.300, 566.633 457.318, 565.296 454.651 C 563.959 451.983, 563.045 449.622, 563.264 449.402 C 563.484 449.183, 565.114 451.023, 566.886 453.491 C 568.658 455.959, 572.608 460.477, 575.663 463.532 C 580.094 467.963, 581.121 469.585, 580.745 471.552 C 580.235 474.220, 580.700 474.044, 585.693 469.677 L 587.886 467.759 582.011 462.849 C 578.779 460.149, 573.908 455.141, 571.185 451.720 C 565.555 444.646, 556.039 434.208, 556.015 435.082 M 511.624 449.539 C 511.281 450.432, 511 453.492, 511 456.338 C 511 459.185, 509.650 467.958, 508 475.835 C 506.350 483.712, 505 490.347, 505 490.578 C 505 490.810, 504.300 491, 503.443 491 C 502.076 491, 501.932 488.647, 502.255 471.579 C 502.523 457.491, 502.984 451.724, 503.934 450.579 C 505.098 449.177, 504.703 449, 500.422 449 C 496.672 449, 495.867 449.267, 496.800 450.200 C 497.656 451.056, 498 457.356, 498 472.200 L 498 493 504.250 492.921 C 507.688 492.878, 509.938 492.615, 509.250 492.338 C 508.563 492.060, 507.999 490.858, 507.997 489.667 C 507.991 485.672, 511.319 467, 512.037 467 C 512.668 467, 514.699 476.705, 516.589 488.750 C 517.202 492.655, 517.498 493, 520.250 493 C 522.662 493, 523.025 492.735, 522.116 491.640 C 521.103 490.419, 516.626 470.150, 513.919 454.525 C 512.751 447.783, 512.504 447.245, 511.624 449.539 M 249 507.956 C 237.909 508.403, 235.500 508.768, 235.500 510 C 235.500 511.321, 244.338 511.486, 309.500 511.385 C 374.044 511.284, 383.538 511.080, 383.794 509.786 C 384.027 508.611, 382.369 508.169, 375.794 507.658 C 366.249 506.915, 269.154 507.143, 249 507.956 M 707.669 507.728 C 651.757 507.953, 636.924 508.275, 637.249 509.257 C 637.929 511.314, 651.129 511.758, 712.485 511.789 C 775.561 511.820, 786.500 511.408, 786.500 509 C 786.500 507.922, 785.376 507.492, 782.500 507.471 C 780.300 507.455, 746.626 507.570, 707.669 507.728 M 272.567 541.703 C 271.831 544.757, 268.309 552.777, 257.942 575 C 254.221 582.975, 248.889 595.241, 246.092 602.259 C 239.950 617.667, 239.528 618.378, 235.322 620.383 C 229.481 623.169, 231.360 624, 243.500 624 C 249.940 624, 255 623.590, 255 623.068 C 255 622.556, 253.650 621.175, 252 620 C 248.255 617.333, 248.225 614.747, 251.837 606 C 254.478 599.606, 254.595 599.489, 259.011 598.824 C 261.480 598.452, 268.225 598.119, 274 598.084 L 284.500 598.019 287.705 606.760 C 291.972 618.394, 292.149 620.233, 289.074 620.972 C 287.740 621.293, 286.465 622.105, 286.241 622.778 C 285.933 623.702, 289.258 624, 299.890 624 L 313.947 624 309.698 619.750 C 306.261 616.313, 304.429 612.918, 300.120 602 C 297.189 594.575, 291.623 581.075, 287.749 572 C 283.876 562.925, 279.250 551.990, 277.470 547.701 C 275.691 543.411, 274.011 539.677, 273.737 539.404 C 273.464 539.131, 272.937 540.165, 272.567 541.703 M 454.500 544 C 452.850 544.420, 441.262 544.817, 428.750 544.882 C 413.831 544.959, 406 545.356, 406 546.034 C 406 546.602, 407.546 547.980, 409.436 549.095 C 413.581 551.540, 413.683 552.202, 414.455 581.500 C 415.085 605.423, 414.094 619.133, 411.531 621.966 C 409.773 623.908, 409.979 623.930, 432.628 624.214 C 464.844 624.617, 461.366 625.702, 463.455 614.600 C 465.840 601.931, 465.218 599.881, 461.302 607.500 C 456.370 617.097, 455.705 617.454, 442.148 617.780 C 435.521 617.939, 429.853 617.628, 429 617.057 C 427.764 616.232, 427.549 613.636, 427.777 602.334 C 427.930 594.787, 428.245 588.422, 428.478 588.189 C 429.375 587.292, 438.046 586.786, 441.483 587.431 C 445.047 588.100, 445.185 588.270, 447.597 595 C 448.064 596.302, 448.253 596.288, 449.037 594.893 C 450.137 592.934, 451.569 574, 450.617 574 C 450.244 574, 448.556 575.575, 446.866 577.500 C 443.819 580.971, 443.723 581, 435.515 581 L 427.238 581 426.534 571.607 C 426.146 566.441, 426.143 559.702, 426.527 556.631 C 427.198 551.259, 427.353 551.024, 430.625 550.411 C 434.766 549.634, 444.394 550.735, 448.547 552.462 C 452.388 554.058, 456.630 559.039, 457.492 562.965 C 457.856 564.621, 458.642 566.279, 459.238 566.647 C 460.005 567.121, 460.128 564.590, 459.661 558.005 C 459.297 552.883, 459 547.412, 459 545.846 C 459 544.281, 458.663 543.053, 458.250 543.118 C 457.837 543.183, 456.150 543.580, 454.500 544 M 732 544.539 C 720.124 547.855, 710.701 555.993, 705.240 567.650 C 702.799 572.863, 702.500 574.644, 702.500 584 C 702.500 593.867, 702.706 594.940, 705.926 601.810 C 715.467 622.169, 739.706 631.061, 759.390 621.422 C 771.717 615.386, 782.539 600.180, 783.711 587.247 C 784.775 575.513, 777.328 559.160, 767.504 551.659 C 757.910 544.333, 743.258 541.395, 732 544.539 M 324.246 556 C 323.657 562.325, 323.341 567.668, 323.544 567.874 C 324.695 569.037, 327.201 566.403, 330.079 561.004 C 333.854 553.920, 336.433 552.238, 344.867 551.356 L 350.783 550.738 351.533 563.619 C 352.347 577.629, 351.586 615.366, 350.428 618.347 C 350.034 619.364, 347.688 621.062, 345.214 622.123 C 342.741 623.183, 340.893 624.198, 341.108 624.378 C 341.898 625.038, 376 623.721, 376 623.030 C 376 622.638, 374.253 621.793, 372.119 621.154 C 369.984 620.514, 367.775 619.430, 367.210 618.745 C 365.912 617.171, 365.135 554.066, 366.390 552.118 C 367.655 550.156, 379.641 551.361, 382.991 553.787 C 384.371 554.786, 386.400 557.477, 387.500 559.766 C 390.883 566.805, 392.112 565.303, 391.786 554.529 L 391.500 545.058 358.408 544.779 L 325.316 544.500 324.246 556 M 622 544.971 L 599.500 545.500 603.151 547.770 C 605.159 549.019, 607.100 550.818, 607.465 551.769 C 609.035 555.861, 610.500 578.089, 610.500 597.822 L 610.500 619.145 607 622.083 L 603.500 625.021 614 624.839 C 619.775 624.739, 626.750 624.450, 629.500 624.196 L 634.500 623.735 629.750 622.337 L 625 620.939 625 612.109 C 625 607.253, 625.284 601.205, 625.632 598.671 L 626.263 594.062 636.977 594.675 C 647.159 595.257, 647.985 595.154, 653.596 592.587 C 657.204 590.936, 661.341 587.926, 664.235 584.845 L 668.969 579.805 668.796 587.937 C 668.647 594.972, 668.904 596.348, 670.701 598.145 L 672.778 600.222 674.824 598.176 C 677.962 595.038, 678.988 589.632, 678.994 576.200 C 678.998 567.460, 678.585 563.097, 677.565 561.125 C 675.413 556.963, 668.411 551.072, 662.523 548.468 C 657.852 546.402, 646.533 543.648, 645.066 544.221 C 644.755 544.343, 634.375 544.680, 622 544.971 M 478 545.458 C 478 545.710, 480.060 547.123, 482.578 548.599 C 485.096 550.074, 487.613 552.456, 488.171 553.891 C 489.643 557.677, 489.591 607.116, 488.107 614.108 C 487.168 618.534, 486.382 619.960, 484.380 620.873 C 482.151 621.888, 481.327 624.277, 483.275 624.075 C 483.674 624.034, 487.938 623.986, 492.750 623.968 L 501.500 623.937 498.817 621.574 C 497.342 620.275, 495.673 619.051, 495.110 618.856 C 494.455 618.628, 493.980 608.728, 493.793 591.382 C 493.581 571.778, 493.798 564.712, 494.576 565.882 C 495.168 566.772, 497.590 572, 499.959 577.500 C 502.328 583, 506.613 592.675, 509.481 599 C 512.349 605.325, 515.701 613.541, 516.931 617.257 C 518.161 620.974, 519.468 623.816, 519.834 623.573 C 521.774 622.286, 543.800 576.169, 544.560 571.802 C 544.913 569.769, 545.782 567.313, 546.489 566.346 C 547.572 564.864, 547.878 566.548, 548.431 577.044 C 548.793 583.895, 549.181 597.260, 549.294 606.745 L 549.500 623.990 554.610 623.995 C 557.421 623.998, 561.741 624.277, 564.209 624.615 C 567.810 625.109, 568.821 624.909, 569.322 623.603 C 570.087 621.609, 568.203 617.202, 566.412 616.796 C 565.382 616.563, 564.966 609.604, 564.463 584.213 L 563.823 551.927 566.412 549.891 C 567.835 548.771, 569 547.147, 569 546.283 C 569 544.946, 567.991 544.806, 562.250 545.348 C 558.538 545.699, 554.038 545.989, 552.250 545.993 C 549.537 545.999, 549 546.376, 549 548.276 C 549 549.528, 547.048 553.690, 544.662 557.526 C 542.276 561.362, 539.511 566.975, 538.518 570 C 536.290 576.788, 525.125 600, 524.088 600 C 522.849 600, 515.288 583.079, 512.917 575 C 510.135 565.519, 504.357 551.341, 501.812 547.750 C 499.890 545.037, 499.719 545, 488.932 545 C 482.919 545, 478 545.206, 478 545.458 M 734.123 550.018 C 720.310 553.215, 711.978 576.124, 718.061 594.181 C 720.967 602.806, 725.324 611.038, 728.656 614.197 C 738.172 623.220, 752.754 621.226, 760.411 609.856 C 766.361 601.021, 768.329 593.497, 767.797 581.619 C 767.052 564.969, 761.324 555.152, 750.341 551.699 C 743.842 549.656, 738.209 549.072, 734.123 550.018 M 629.250 550.973 C 627.047 551.915, 627 552.280, 627 568.345 C 627 582.239, 627.248 584.961, 628.617 586.097 C 629.647 586.952, 633.731 587.561, 639.867 587.777 C 651.326 588.179, 654.225 586.885, 658.606 579.409 C 660.861 575.561, 661.359 573.534, 661.311 568.404 C 661.197 556.241, 654.806 550.809, 640.018 550.302 C 635.333 550.141, 630.487 550.443, 629.250 550.973 M 269 563.858 C 269 564.549, 266.579 570.377, 263.619 576.808 C 260.660 583.238, 257.909 589.576, 257.507 590.892 L 256.775 593.284 268.912 592.784 C 275.588 592.509, 281.297 592.036, 281.601 591.733 C 281.904 591.429, 280.727 587.878, 278.986 583.840 C 277.244 579.803, 274.696 573.800, 273.322 570.500 C 270.734 564.282, 269 561.617, 269 563.858 M 543.773 644.714 C 542.021 644.980, 539.234 647.161, 535.983 650.809 C 530.305 657.179, 529.043 656.897, 529.015 649.250 C 529.001 645.387, 528.772 645, 526.500 645 L 524 645 524 657.893 C 524 671.345, 524.214 672, 528.616 672 C 529.781 672, 529.938 671.010, 529.406 667 C 528.821 662.590, 528.957 662, 530.561 662 C 531.561 662, 534.459 664.250, 537 667 C 540.808 671.121, 542.221 672, 545.034 672 L 548.446 672 541.755 665.250 C 538.069 661.531, 535.386 658.039, 535.782 657.474 C 536.177 656.909, 539.313 654.029, 542.750 651.074 C 546.188 648.118, 549 645.318, 549 644.850 C 549 643.987, 548.621 643.977, 543.773 644.714 M 606.179 647.554 L 606.500 651.471 610.750 651.159 L 615 650.847 615 661.424 L 615 672 617.566 672 L 620.133 672 619.816 661.998 L 619.500 651.996 624.316 651.998 C 628.981 652, 629.123 651.913, 628.816 649.250 L 628.500 646.500 618.556 646.211 C 613.005 646.050, 608.004 645.418, 607.235 644.780 C 606.098 643.836, 605.914 644.321, 606.179 647.554 M 390.358 648.750 C 390.699 650.813, 390.983 656.888, 390.989 662.250 C 391 671.934, 391.017 672, 393.456 672 C 395.812 672, 395.924 671.702, 396.206 664.750 L 396.500 657.500 399.870 663.293 C 401.723 666.480, 403.748 668.921, 404.370 668.719 C 404.991 668.516, 407.075 665.508, 409 662.034 L 412.500 655.718 412.790 663.859 C 413.069 671.657, 413.180 672, 415.433 672 C 417.745 672, 417.791 671.803, 418.194 660.250 C 418.684 646.198, 418.445 644.794, 415.633 645.198 C 414.244 645.397, 412.099 647.877, 409.336 652.476 C 407.031 656.312, 404.775 659.574, 404.323 659.723 C 403.870 659.873, 402.238 657.580, 400.696 654.627 C 397.179 647.897, 394.511 645, 391.830 645 C 389.969 645, 389.807 645.414, 390.358 648.750 M 447.961 648.750 C 447.303 650.813, 444.569 656.606, 441.883 661.624 C 439.197 666.642, 437 671.059, 437 671.440 C 437 671.821, 438.220 671.990, 439.710 671.816 C 441.650 671.590, 442.586 670.789, 443.002 669 C 443.542 666.679, 444.064 666.479, 450.292 666.204 L 457 665.909 457 669.021 C 457 671.826, 457.271 672.102, 459.750 671.816 C 461.866 671.573, 462.424 671.039, 462.172 669.500 C 461.523 665.544, 451.677 645, 450.430 645 C 449.729 645, 448.618 646.688, 447.961 648.750 M 567.999 652.603 C 568 656.510, 567.711 662.473, 567.358 665.853 L 566.715 672 576.927 672 C 586.945 672, 587.133 671.957, 586.820 669.750 C 586.526 667.685, 585.903 667.476, 579.250 667.206 L 572 666.912 572 663.864 L 572 660.816 578.250 661.158 C 584.341 661.491, 584.500 661.436, 584.500 659 C 584.500 656.599, 584.253 656.500, 578.250 656.510 C 572.091 656.519, 572 656.480, 572 653.760 C 572 651.014, 572.035 651, 578.883 651 C 585.140 651, 585.819 650.799, 586.344 648.794 C 586.661 647.580, 586.826 646.500, 586.710 646.394 C 586.595 646.288, 582.337 646.043, 577.249 645.850 L 567.999 645.500 567.999 652.603 M 481.370 648.250 C 481.701 649.487, 481.979 655.337, 481.986 661.250 L 482 672 484.500 672 C 486.838 672, 487 671.671, 487 666.934 C 487 662.010, 487.077 661.876, 489.718 662.184 C 491.529 662.394, 493.191 663.668, 494.700 666 C 498.263 671.505, 498.883 672, 502.214 672 L 505.349 672 503.299 669.750 C 502.172 668.513, 500.697 666.429, 500.021 665.121 C 498.922 662.994, 499.084 662.508, 501.550 660.542 C 504.023 658.570, 504.248 657.889, 503.724 653.977 C 502.841 647.393, 500.461 646.049, 489.633 646.022 C 480.922 646, 480.777 646.039, 481.370 648.250 M 257 661 C 237.889 661.425, 234.500 661.726, 234.500 663 C 234.500 664.321, 242.419 664.464, 300.966 664.201 C 337.522 664.036, 367.615 663.718, 367.839 663.494 C 368.064 663.270, 367.970 662.363, 367.631 661.480 C 367.075 660.032, 362.700 659.904, 323.257 660.187 C 299.191 660.359, 269.375 660.725, 257 661 M 648 661.360 C 648 663.367, 666.160 663.937, 731.459 663.981 C 776.444 664.011, 787.172 663.771, 786.160 662.759 C 784.677 661.274, 747.325 660.278, 686.750 660.108 C 654.697 660.019, 648 660.235, 648 661.360 M 439.840 702.250 C 439.753 710.087, 439.810 729.895, 439.969 746.266 L 440.257 776.033 437.628 778.469 C 436.183 779.808, 435 781.846, 435 782.998 C 435 785.698, 439.301 790, 442 790 C 444.678 790, 449 785.706, 449 783.045 C 449 781.077, 445.796 776.999, 444.250 777.001 C 443.837 777.001, 443.641 758.438, 443.813 735.751 C 443.986 713.063, 443.853 693.038, 443.518 691.250 C 443.162 689.352, 442.304 688, 441.455 688 C 440.257 688, 439.972 690.520, 439.840 702.250 M 474.865 691.205 C 474.664 693.017, 474.653 710.138, 474.839 729.250 C 475.110 756.999, 475.442 764, 476.484 764 C 478.409 764, 478.553 760.066, 478 722.583 C 477.646 698.562, 477.169 688.555, 476.365 688.287 C 475.713 688.071, 475.074 689.313, 474.865 691.205 M 507.676 690.869 C 507.352 692.489, 507.026 723.505, 506.950 759.791 C 506.832 816.937, 507.016 826.151, 508.327 828.633 L 509.840 831.500 510.711 829 C 512.052 825.153, 510.764 688.753, 509.383 688.294 C 508.768 688.089, 508 689.248, 507.676 690.869 M 541.557 699.250 C 541.181 705.438, 541.015 722.537, 541.187 737.250 C 541.476 761.940, 541.635 764, 543.250 764 C 544.886 764, 545 761.524, 545 726 C 545 694.356, 544.769 688, 543.620 688 C 542.569 688, 542.077 690.681, 541.557 699.250 M 574.647 695.651 C 573.818 705.450, 573.976 747.743, 574.901 764 C 575.599 776.262, 575.568 776.535, 573.306 778.333 C 570.100 780.882, 570.250 785.265, 573.635 787.927 C 577.152 790.694, 579.431 790.539, 581.927 787.365 C 584.729 783.803, 584.535 781.628, 581.164 778.791 L 578.328 776.405 578.568 734.453 C 578.700 711.379, 578.577 691.487, 578.295 690.250 C 578.014 689.013, 577.223 688, 576.538 688 C 575.710 688, 575.077 690.560, 574.647 695.651 M 435.340 794.435 C 429.380 796.299, 425.406 799.451, 422.271 804.801 C 414.629 817.841, 423.777 835.079, 439.645 837.541 C 442.771 838.026, 444.730 837.511, 450 834.819 C 460.818 829.294, 465.169 819.472, 461.418 809.042 C 459.040 802.430, 455.053 797.688, 449.685 795.090 C 444.790 792.720, 441.329 792.562, 435.340 794.435 M 570.030 795.113 C 559.207 799.432, 553.062 813.321, 557.835 822.677 C 562.079 830.995, 567.832 835.749, 575.715 837.450 C 582.429 838.899, 595.885 830.289, 597.603 823.445 C 597.951 822.060, 598.041 818.244, 597.804 814.965 C 597.449 810.059, 596.675 807.983, 593.434 803.251 C 591.147 799.910, 588.030 796.767, 585.998 795.752 C 582.181 793.844, 574.027 793.517, 570.030 795.113 M 450.750 801.152 C 454.444 805.066, 454.933 806.570, 452 805 C 449.447 803.634, 449.481 804.401, 452.175 808.882 L 454.350 812.500 451.497 810 L 448.645 807.500 451.021 810.933 C 453.075 813.901, 453.148 814.271, 451.557 813.660 C 449.998 813.062, 449.910 813.187, 450.981 814.477 C 452.041 815.755, 451.923 816, 450.245 816 C 448.062 816, 445.620 818.286, 446.675 819.342 C 447.037 819.704, 446.696 820.032, 445.917 820.070 C 445.080 820.112, 445.319 820.492, 446.500 821 C 448.141 821.705, 447.872 821.875, 445 821.945 C 442.358 822.010, 441.868 822.268, 443 823 C 445.476 824.600, 440.529 824.239, 436.218 822.505 C 432.918 821.178, 432.718 821.178, 434.441 822.505 C 437.467 824.836, 434.252 824.314, 430.118 821.803 C 428.128 820.594, 426.169 819.132, 425.765 818.553 C 425.262 817.831, 425.026 817.851, 425.015 818.614 C 424.990 820.463, 432.385 824.986, 437.089 825.999 L 441.500 826.949 436.295 826.527 C 433.432 826.295, 429.832 825.317, 428.295 824.353 L 425.500 822.601 427.924 825.301 C 429.258 826.785, 430.945 828, 431.674 828 C 432.403 828, 433 828.436, 433 828.969 C 433 830.090, 430.540 829.316, 427.101 827.112 C 424.753 825.607, 424.728 825.624, 425.937 827.882 C 427.828 831.416, 437.283 835.359, 442.264 834.691 C 447.300 834.016, 453.369 829.849, 457.823 824.010 C 460.951 819.909, 461.177 819.128, 460.790 813.774 C 460.440 808.929, 459.853 807.444, 457.215 804.722 C 455.480 802.932, 452.584 800.621, 450.780 799.588 L 447.500 797.709 450.750 801.152 M 588.143 805.857 C 592.400 810.114, 592.981 811.195, 592.850 814.607 C 592.724 817.880, 592.632 818.037, 592.268 815.590 C 591.740 812.029, 589.372 808.270, 586.787 806.886 C 584.970 805.914, 584.945 805.989, 586.352 808.177 C 587.173 809.455, 587.993 812.039, 588.173 813.921 C 588.474 817.075, 588.232 817.412, 585.065 818.247 C 582.461 818.934, 581.977 819.373, 583.065 820.061 C 583.854 820.561, 585.625 821.008, 587 821.055 C 589.295 821.134, 589.336 821.211, 587.500 822 C 586.400 822.473, 584.150 822.898, 582.500 822.945 C 580.231 823.010, 579.861 823.259, 580.981 823.967 C 581.955 824.583, 580.417 824.743, 576.481 824.435 C 572.270 824.105, 571.092 824.247, 572.500 824.913 C 574.351 825.789, 574.311 825.865, 571.961 825.930 C 570.565 825.968, 567.705 825.124, 565.605 824.053 C 561.809 822.118, 561.797 822.119, 563.567 824.074 C 564.546 825.155, 567.406 826.675, 569.923 827.451 C 572.441 828.226, 573.600 828.872, 572.500 828.886 C 571.400 828.901, 568.700 828.264, 566.500 827.471 C 564.300 826.679, 562.376 826.023, 562.224 826.015 C 562.073 826.007, 562.618 827.294, 563.436 828.876 C 564.970 831.843, 571.086 835.005, 575.270 834.994 C 580.581 834.981, 585.182 832.692, 590.970 827.185 C 596.477 821.945, 597 821.082, 597 817.244 C 597 814.932, 596.258 811.187, 595.352 808.921 C 594.033 805.625, 592.818 804.422, 589.269 802.901 C 582.859 800.154, 582.744 800.458, 588.143 805.857 M 500.239 834.335 C 495.345 836.110, 490.263 840.580, 487.780 845.295 C 486.072 848.538, 485.558 851.233, 485.533 857.074 C 485.504 863.796, 485.837 865.182, 488.500 869.403 C 490.150 872.019, 493.075 875.107, 495 876.266 L 498.500 878.374 496.076 875.687 C 494.742 874.209, 494.153 873, 494.767 873 C 495.380 873, 496.160 873.450, 496.500 874 C 496.840 874.550, 497.535 875, 498.044 875 C 498.554 875, 497.290 873.447, 495.235 871.548 L 491.500 868.096 497.391 871.048 C 500.631 872.672, 504.681 873.955, 506.391 873.900 C 509.450 873.801, 509.439 873.785, 505.734 872.912 C 501.089 871.818, 494.806 868.676, 493.064 866.577 C 492.301 865.658, 493.698 866.090, 496.433 867.618 C 499.002 869.054, 501.348 869.986, 501.645 869.688 C 501.942 869.391, 500.823 868.442, 499.156 867.581 C 497.490 866.719, 495.846 865.560, 495.503 865.005 C 495.160 864.451, 496.467 864.933, 498.407 866.078 C 500.347 867.222, 502.362 867.895, 502.884 867.572 C 503.407 867.249, 506.684 867.656, 510.167 868.477 C 518.650 870.477, 520.474 870.297, 515 868 L 510.500 866.112 517 865.920 C 520.575 865.814, 522.375 865.526, 521 865.279 C 517.972 864.736, 515.866 863, 518.235 863 C 519.134 863, 521.024 863.439, 522.435 863.975 C 526.219 865.414, 525.551 864.339, 521.250 862.068 C 517.840 860.268, 517.727 860.083, 520 860.029 C 521.988 859.982, 522.193 859.771, 521 859 C 519.810 858.231, 520.017 858.024, 522 858 C 523.375 857.983, 524.050 857.639, 523.500 857.235 C 522.950 856.831, 521.912 855.748, 521.193 854.829 C 520.039 853.353, 520.156 853.224, 522.193 853.723 C 523.462 854.034, 525.073 854.738, 525.774 855.287 C 526.475 855.836, 527.304 856.030, 527.616 855.717 C 527.928 855.405, 526.342 853.931, 524.092 852.442 C 521.841 850.953, 520 849.622, 520 849.484 C 520 848.434, 526.021 849.878, 527.402 851.259 C 530.238 854.096, 530.445 853.247, 527.770 849.750 C 526.402 847.962, 523.532 845.451, 521.392 844.169 L 517.500 841.838 520.934 842.431 C 525.340 843.191, 527.811 845.428, 530.237 850.852 C 532.545 856.012, 532.047 860.439, 528.464 866.613 C 523.238 875.616, 515.384 879.667, 505 878.717 L 499.500 878.213 503.378 879.995 C 510.493 883.265, 522.016 880.335, 527.452 873.875 C 530.079 870.753, 533 862.427, 533 858.062 C 533 856.646, 532.580 854.022, 532.066 852.232 C 531.191 849.180, 530.278 847.771, 524.041 839.841 C 519.299 833.812, 508.542 831.324, 500.239 834.335 M 437.725 843.752 C 435.098 846.654, 433.868 850.884, 435.023 853.043 C 437.367 857.423, 443.458 858.271, 446.826 854.686 C 449.848 851.468, 449.547 848.922, 445.702 845.196 C 441.968 841.577, 440.013 841.223, 437.725 843.752 M 573.783 843.750 C 571.872 845.942, 570 849.518, 570 850.980 C 570 851.591, 571.105 853.195, 572.455 854.545 C 575.604 857.695, 579.943 857.754, 582.826 854.686 C 586.423 850.856, 585.259 846.220, 580.020 843.510 C 576.304 841.589, 575.647 841.614, 573.783 843.750 M 504.181 892.447 C 502.407 894.467, 501.269 896.627, 501.652 897.246 C 502.035 897.866, 502.382 901.776, 502.424 905.936 C 502.485 911.959, 502.806 913.500, 504 913.500 C 504.844 913.500, 505.325 912.844, 505.101 912 C 504.881 911.175, 504.497 909.291, 504.247 907.814 C 503.819 905.287, 504.005 905.139, 507.391 905.314 C 511.013 905.501, 511.312 905.836, 511.132 909.500 L 511.033 911.500 511.906 909.500 C 512.386 908.400, 512.558 906.317, 512.289 904.871 C 512.019 903.425, 512.294 901.936, 512.899 901.562 C 515.018 900.253, 513.993 895.963, 510.703 892.373 L 507.405 888.774 504.181 892.447" stroke="none" fill="#484848" fill-rule="evenodd"/>
</svg>