<svg xmlns="http://www.w3.org/2000/svg" width="1022" height="1017" viewBox="0 0 1022 1017" version="1.1">
	<path d="M -0 508.501 L -0 1017.002 511.250 1016.751 L 1022.500 1016.500 1022.751 508.250 L 1023.002 0 511.501 0 L 0 0 -0 508.501 M 0.496 509 C 0.496 788.675, 0.610 903.088, 0.750 763.250 C 0.890 623.413, 0.890 394.588, 0.750 254.750 C 0.610 114.913, 0.496 229.325, 0.496 509 M 501.387 85.014 C 479.377 88.173, 462.332 104.337, 458.710 125.486 C 456.785 136.722, 460.454 151.173, 467.614 160.560 C 470.441 164.266, 480.375 171.708, 485.297 173.807 C 488.895 175.342, 494.262 175.338, 495.800 173.800 C 496.733 172.867, 497 174.044, 497 179.098 L 497 185.597 485.250 186.791 C 452.179 190.152, 424.904 202.404, 393.500 228.005 C 385.769 234.307, 372.773 248.443, 366.384 257.500 C 348.097 283.424, 341.192 300.686, 335.386 335 C 333.057 348.760, 332.826 352.240, 333.330 366 C 333.951 382.948, 335.349 390.825, 340.696 407.500 C 344.382 418.998, 353.149 437.259, 359.898 447.500 C 365.939 456.665, 379.975 473.101, 388.097 480.522 C 398.888 490.379, 401.404 491.266, 391.355 481.671 C 380.779 471.572, 376.104 465.950, 365.849 451 C 359.959 442.414, 354.653 433.014, 355.319 432.348 C 355.612 432.054, 356.613 433.318, 357.543 435.157 C 362.236 444.441, 383.615 469.797, 394.109 478.528 C 407.133 489.363, 405.859 488.646, 407.622 486.130 L 409.154 483.942 414.577 487.044 C 421.268 490.872, 421.642 490.214, 415.250 485.862 C 407.782 480.776, 383.532 456.411, 378.150 448.587 C 373.059 441.185, 359.479 416.188, 360.172 415.495 C 360.391 415.275, 363.930 421.391, 368.035 429.085 C 377.229 446.313, 381.101 451.566, 394.756 465.328 C 410.132 480.825, 427.043 493.122, 441.500 499.318 C 466.371 509.978, 481.804 513.140, 509.500 513.251 C 532.670 513.343, 551.805 509.779, 573 501.422 C 587.542 495.688, 612.373 477.837, 626.194 463.180 C 633.820 455.093, 648.350 433.669, 652.767 424 C 659.350 409.591, 665.102 390.711, 667.071 377.048 C 669.663 359.062, 666.272 326.435, 659.945 308.498 C 648.862 277.074, 623.416 245.978, 591.414 224.751 C 576.521 214.871, 553.355 206.017, 533.119 202.469 C 520.715 200.295, 495.348 200.534, 480.500 202.966 C 451.611 207.697, 430.998 217.321, 407.752 236.930 L 402.500 241.360 408 235.592 C 430.341 212.162, 474.465 197.225, 515 199.372 C 544.243 200.920, 572.425 210.272, 597.139 226.628 C 614.502 238.119, 634.651 259.666, 649.322 282.432 C 653.798 289.378, 655.001 289.409, 654.294 282.561 C 653.794 277.716, 653.945 277, 655.467 277 C 656.601 277, 657.014 277.521, 656.644 278.485 C 656.310 279.356, 656.880 280.401, 658.024 281.013 C 659.831 281.980, 659.804 281.743, 657.651 277.778 C 649.494 262.753, 645.011 256.668, 628.015 237.546 C 622.586 231.438, 627.070 235.230, 634.877 243.348 C 643.383 252.195, 653.665 267.210, 661.687 282.500 C 664.572 288, 666.948 292.126, 666.966 291.670 C 667.029 290.113, 656.054 269.521, 651.430 262.520 C 638.575 243.056, 622.297 226.852, 601.971 213.281 C 589.464 204.931, 582.753 201.455, 570 196.723 C 559.685 192.895, 536.815 187.368, 527.082 186.351 L 521 185.715 520.977 181.108 C 520.935 172.355, 519.786 156.498, 519.144 155.797 C 518.790 155.411, 518.635 162.048, 518.799 170.547 C 519.089 185.554, 519.039 186, 517.049 186 C 515.363 186, 514.985 185.336, 514.916 182.250 C 514.870 180.188, 514.532 173.437, 514.166 167.249 C 513.598 157.646, 513.720 155.981, 515 155.882 C 515.825 155.817, 514.250 155.379, 511.500 154.907 C 506.340 154.022, 500.895 154.541, 497.631 156.231 C 495.962 157.094, 495.837 157.965, 496.464 164.329 C 497.140 171.188, 497.096 171.399, 495.333 169.857 C 494.325 168.975, 491.925 167.731, 490 167.094 C 472.274 161.225, 462.659 137.826, 470.281 119.105 C 473.810 110.436, 478.558 103.734, 483.385 100.604 C 485.593 99.172, 486.672 98, 485.781 98 C 483.385 98, 473.186 107.715, 470.922 112.153 C 469.842 114.269, 468.732 116, 468.454 116 C 467.333 116, 471.520 109.190, 475.603 104.370 C 479.216 100.106, 481.566 98.531, 489.519 95.043 C 500.926 90.040, 506.829 89.254, 516.922 91.392 C 525.695 93.250, 533.895 97.863, 538.330 103.435 C 540.052 105.600, 542.443 108.352, 543.642 109.551 C 548.947 114.856, 552.681 127.416, 551.502 135.989 C 549.976 147.079, 541.613 158.334, 529.240 165.947 C 521.186 170.903, 520.887 174.604, 528.769 171.769 C 534.191 169.820, 535.404 170.145, 531.338 172.458 C 528.679 173.971, 528.658 174.032, 531 173.423 C 534.442 172.527, 539.247 169.515, 541.566 166.800 C 543.486 164.550, 543.486 164.545, 541.500 165.967 C 540.400 166.755, 541.487 165.304, 543.916 162.743 C 546.344 160.182, 548.638 158.276, 549.013 158.508 C 549.845 159.022, 554.336 154.317, 555.878 151.316 C 557.700 147.769, 557.148 147.257, 555 150.500 C 552.628 154.082, 552.469 153.516, 554.489 148.681 C 555.308 146.721, 556.681 140.748, 557.540 135.407 C 559.044 126.063, 559.025 125.442, 557.054 118.950 C 553.480 107.185, 542.861 95.367, 530.755 89.682 C 522.519 85.815, 509.846 83.800, 501.387 85.014 M 503.500 125.069 C 491.222 125.811, 486.394 127.184, 485.435 130.205 C 484.523 133.080, 485.918 146.505, 487.329 148.436 C 487.976 149.320, 489.741 150.267, 491.252 150.541 L 494 151.039 494.142 143.270 L 494.284 135.500 494.975 142.283 C 495.712 149.520, 497.352 152.641, 499.026 149.992 C 499.545 149.171, 500.044 144.225, 500.135 139 C 500.225 133.775, 500.460 130.850, 500.656 132.500 C 501.148 136.649, 503.006 147.129, 503.624 149.250 C 505.015 154.020, 506.011 149.824, 506.116 138.750 C 506.246 125.067, 506.502 125.146, 508.273 139.417 C 509.028 145.500, 509.987 149.496, 510.752 149.751 C 511.637 150.046, 512 148.730, 512 145.230 C 512 142.515, 512.320 137.415, 512.710 133.897 L 513.421 127.500 514.136 132 C 514.530 134.475, 514.885 139.313, 514.926 142.750 C 514.967 146.188, 515.394 149, 515.875 149 C 517.176 149, 517.988 143.756, 518.100 134.625 C 518.220 124.787, 519.695 127.794, 520 138.500 C 520.110 142.350, 520.521 146.625, 520.913 148 C 521.493 150.031, 521.754 149.468, 522.305 145 C 522.678 141.975, 522.987 137.164, 522.991 134.309 C 523.003 127.376, 524.554 126.740, 525.526 133.269 L 526.305 138.500 527.084 133.652 C 527.806 129.157, 529 126.153, 529 128.833 C 529 129.475, 529.450 130, 530 130 C 530.550 130, 531 129.132, 531 128.072 C 531 126.101, 531.176 126.144, 517 124.665 C 515.625 124.522, 509.550 124.704, 503.500 125.069 M 486 205.513 C 467.002 208.128, 454.396 211.840, 439.835 219.108 C 404.297 236.848, 374.452 270.895, 360.600 309.500 C 353.431 329.482, 350 353.548, 351.906 370.486 C 353.050 380.656, 357.991 402.246, 360.058 406.108 C 360.661 407.235, 361.839 410.463, 362.676 413.281 C 365.533 422.900, 381.132 447.468, 392.133 459.675 C 402.858 471.575, 421.895 486.384, 434.916 492.958 C 446.284 498.696, 459.331 502.992, 474.341 505.937 C 508.183 512.579, 530.168 510.870, 564.912 498.897 C 591.542 489.721, 621.494 464.904, 640.637 436.156 C 648.166 424.849, 654.195 410.557, 659.265 392 L 663.500 376.500 663.458 358 C 663.424 342.633, 663.032 337.722, 661.148 329 C 653.054 291.529, 635.366 262.928, 604.500 237.399 C 594.739 229.326, 591.472 227.135, 581.232 221.798 C 553.355 207.268, 517.637 201.160, 486 205.513 M 493.196 223.750 C 494.900 225.730, 500 241.641, 500 244.976 C 500 247.599, 494.374 263.844, 492.816 265.722 C 491.229 267.634, 491.840 267.806, 498.250 267.250 C 503.244 266.818, 504 266.479, 504 264.676 C 504 263.061, 503.733 262.867, 502.800 263.800 C 502.140 264.460, 500.507 265, 499.172 265 C 496.880 265, 496.781 264.763, 497.401 260.750 C 498.319 254.814, 500.015 249.891, 500.943 250.465 C 501.374 250.731, 502.325 253.098, 503.058 255.724 C 503.790 258.351, 504.974 261.625, 505.689 263 C 506.501 264.563, 506.968 269.059, 506.934 275 C 506.855 288.998, 505.948 293.006, 501.679 298.216 C 496.798 304.173, 496.760 307.704, 501.535 311.896 C 503.479 313.603, 505.401 315, 505.805 315 C 506.210 315, 506.492 321.945, 506.432 330.433 L 506.323 345.867 500.661 351.221 C 495.630 355.979, 495 357.015, 495.004 360.537 C 495.009 365.638, 497.837 370.220, 502.283 372.330 C 509.359 375.688, 515.349 373.673, 519.538 366.525 C 522.564 361.361, 522.953 361.245, 539.500 360.540 C 545.550 360.283, 553.467 359.775, 557.093 359.412 C 563.637 358.756, 563.703 358.775, 565.911 361.876 C 568.976 366.179, 572.017 365.947, 577.384 361 C 581.195 357.488, 582.319 356.996, 586.612 356.969 C 589.300 356.952, 596.900 356.286, 603.500 355.490 C 610.100 354.693, 622.138 354.032, 630.250 354.021 C 644.886 354, 645 354.017, 645.001 356.250 C 645.002 358.479, 644.906 358.494, 634.751 357.856 C 629.113 357.502, 619.255 357.164, 612.844 357.106 C 601.655 357.004, 601.208 357.080, 601.710 359 C 602.259 361.100, 601.660 361.065, 642.750 361.403 C 644.229 361.415, 645 362.028, 645 363.191 C 645 364.822, 643.289 364.982, 623.250 365.230 C 602.367 365.489, 601.489 365.580, 601.212 367.500 C 600.931 369.455, 601.404 369.493, 622.171 369.175 C 641.547 368.879, 643.531 369.006, 644.709 370.616 C 645.803 372.113, 646 371.151, 646 364.316 C 646 359.880, 646.264 354.928, 646.588 353.312 L 647.175 350.374 632.338 350.745 C 624.177 350.949, 612.248 351.765, 605.830 352.558 C 599.411 353.351, 591.215 354, 587.616 354 C 581.212 354, 580.988 353.910, 577.130 349.774 C 573.536 345.921, 572.939 345.635, 570.373 346.538 C 568.825 347.082, 566.317 349.375, 564.801 351.632 C 562.240 355.446, 561.635 355.783, 556.261 356.391 C 550.246 357.071, 544.349 356.373, 543.420 354.871 C 543.124 354.392, 542.346 354.003, 541.691 354.007 C 541.036 354.010, 541.771 354.851, 543.325 355.876 L 546.150 357.738 543.325 358.319 C 541.233 358.750, 540.051 358.372, 538.769 356.863 C 537.059 354.851, 536.957 354.848, 530.101 356.614 L 523.163 358.401 518.281 353.200 C 515.595 350.340, 512.634 348, 511.699 348 C 510.170 348, 510 346.375, 510.003 331.750 L 510.005 315.500 513.722 313.500 C 520.326 309.946, 520.403 303.925, 513.947 295.923 C 511.001 292.272, 510.053 287.109, 510.012 274.500 C 509.975 263.197, 508.828 257.145, 505.116 248.667 C 502.605 242.933, 502.497 240.874, 504.500 237.001 C 506.112 233.883, 509.208 222.875, 508.634 222.301 C 508.443 222.109, 507.547 222.237, 506.643 222.583 C 505.583 222.990, 505 224.373, 505 226.482 C 505 231.056, 503.911 236, 502.903 236 C 502.437 236, 501.314 233.446, 500.406 230.326 C 498.838 224.932, 498.846 224.585, 500.569 223.326 C 502.158 222.164, 501.721 222, 497.036 222 C 492.038 222, 491.788 222.114, 493.196 223.750 M 511.247 240.249 C 511.657 250.287, 511.749 260.371, 511.449 262.659 L 510.905 266.818 517.202 267.199 C 520.666 267.408, 523.666 267.471, 523.869 267.337 C 524.072 267.204, 523.492 266.350, 522.581 265.438 C 521.125 263.982, 520.959 261.253, 521.212 242.890 L 521.500 221.998 516 221.998 L 510.500 221.998 511.247 240.249 M 515 243.667 C 515.370 258.949, 515.826 264.445, 516.750 264.752 C 517.724 265.075, 518 260.505, 518 244.083 C 518 224.671, 517.861 223, 516.250 222.999 C 514.624 222.997, 514.535 224.458, 515 243.667 M 448.500 234.292 C 446.850 234.832, 445.334 235.416, 445.131 235.589 C 444.928 235.762, 446.427 237.838, 448.463 240.202 C 450.498 242.566, 455.111 250.575, 458.713 258 C 462.316 265.425, 465.437 271.806, 465.648 272.181 C 465.860 272.555, 465.564 273.152, 464.990 273.506 C 464.416 273.861, 463.497 272.854, 462.942 271.264 C 462.265 269.322, 460.816 267.974, 458.509 267.140 C 453.015 265.153, 447.308 257.865, 446.005 251.171 C 445.398 248.052, 444.662 244.259, 444.369 242.742 C 443.805 239.817, 440.689 237.456, 438.873 238.579 C 438.191 239, 438.149 239.483, 438.759 239.875 C 440.358 240.903, 444 248.751, 444 251.168 C 444 253.178, 443.522 252.948, 439.500 249 C 437.025 246.571, 435 244.002, 435 243.292 C 435 241.383, 433.280 241.720, 430.905 244.095 L 428.811 246.189 431.655 247.652 C 435.670 249.716, 442.734 256.776, 445.512 261.500 C 448.744 266.997, 451.552 281.099, 449.994 284.011 C 448.233 287.302, 449.113 287.145, 453.500 283.384 C 455.700 281.498, 456.785 280.211, 455.910 280.523 C 453.693 281.315, 452.415 279.363, 451.117 273.201 C 450.503 270.286, 450 267.717, 450 267.491 C 450 267.265, 452.946 269.310, 456.548 272.036 L 463.095 276.992 467.048 274.976 C 469.221 273.867, 471 272.700, 471 272.384 C 471 272.068, 470.135 270.594, 469.078 269.109 C 468.021 267.625, 465.160 262.155, 462.720 256.955 C 460.280 251.755, 456.907 245.180, 455.224 242.345 C 453.541 239.510, 452.015 236.317, 451.832 235.251 C 451.544 233.567, 451.104 233.441, 448.500 234.292 M 567.823 257.250 C 561.962 265.637, 556.202 273.555, 555.023 274.845 C 552.969 277.091, 552.955 277.249, 554.689 278.563 C 557.210 280.475, 557.293 280.432, 559.212 276.240 C 560.154 274.183, 564.319 267.775, 568.469 262 C 580.700 244.980, 581.219 244.164, 580.536 243.058 C 580.176 242.476, 579.566 242, 579.181 242 C 578.795 242, 573.684 248.863, 567.823 257.250 M 390 283.896 C 390 285.734, 393.946 289.777, 399.024 293.141 C 400.386 294.043, 401.228 295.065, 400.896 295.411 C 399.999 296.346, 390.176 294.033, 388.677 292.534 C 387.617 291.475, 387.146 291.773, 386.082 294.177 C 385.367 295.793, 384.982 297.316, 385.228 297.561 C 385.473 297.806, 389.819 298.893, 394.885 299.975 C 399.951 301.058, 405.312 302.672, 406.798 303.562 C 409.531 305.199, 418.741 316.329, 420.403 320.004 C 421.561 322.566, 423 322.575, 423 320.020 C 423 318.931, 420.322 315.234, 417.048 311.805 C 413.775 308.376, 411.256 305.410, 411.452 305.215 C 411.975 304.691, 425.152 308.881, 426.500 310 C 427.293 310.658, 428.334 310.039, 429.827 308.020 C 432.561 304.322, 432.688 302.553, 430.103 304.168 C 427.765 305.628, 418.139 303.256, 409.294 299.040 C 403.730 296.388, 392 285.559, 392 283.074 C 392 282.483, 391.550 282, 391 282 C 390.450 282, 390 282.853, 390 283.896 M 621 288.409 C 611.856 294.390, 596.047 304.001, 592.056 306.006 C 588.279 307.904, 587.303 308.047, 585.556 306.959 C 583.632 305.761, 583.593 305.802, 584.953 307.589 C 589.544 313.628, 590.048 313.952, 591.931 312.069 C 592.895 311.105, 600.167 306.420, 608.091 301.656 C 624.739 291.649, 627.440 289.588, 626.639 287.502 C 625.890 285.549, 625.205 285.659, 621 288.409 M 361.198 295.808 C 358.939 300.669, 355.283 311.044, 353.073 318.864 C 346.045 343.733, 345.206 366.107, 350.480 388 C 352.004 394.325, 353.898 400.625, 354.689 402 C 355.617 403.613, 355.896 403.790, 355.475 402.500 C 355.116 401.400, 353.625 395.550, 352.161 389.500 C 349.707 379.358, 349.502 376.863, 349.523 357.500 C 349.544 338.838, 349.809 335.442, 351.905 327 C 354.777 315.433, 360.288 299.338, 363.650 292.703 C 365.017 290.007, 365.948 287.614, 365.719 287.386 C 365.491 287.157, 363.456 290.948, 361.198 295.808 M 627.684 293.381 C 627.146 294.782, 621.121 298.651, 601.740 310.038 C 592.447 315.498, 591.066 316.643, 591.614 318.430 C 592.567 321.540, 592.796 321.562, 595.760 318.824 C 599.870 315.029, 606.184 311.015, 619.707 303.600 C 631.584 297.088, 631.884 296.840, 630.797 294.453 C 629.542 291.699, 628.471 291.330, 627.684 293.381 M 505.250 298.599 C 502.535 303.244, 500.946 309, 502.378 309 C 502.586 309, 504.358 309.669, 506.316 310.488 C 509.730 311.914, 510.002 311.869, 512.938 309.399 C 514.622 307.982, 516 306.108, 516 305.234 C 516 304.077, 509.198 292.875, 508.584 293.020 C 508.538 293.031, 507.038 295.541, 505.250 298.599 M 369.336 347.616 C 369.689 349.752, 369.983 355.903, 369.989 361.285 L 370 371.069 391.372 370.897 C 403.127 370.802, 413.252 371.038, 413.872 371.421 C 414.665 371.911, 415 370.188, 415 365.620 L 415 359.123 410.665 358.473 C 405.517 357.701, 403.497 356.623, 404.414 355.139 C 405.232 353.815, 412.706 351.700, 413.918 352.449 C 414.922 353.070, 416 350.723, 416 347.918 C 416 345.610, 415.603 345.559, 412.664 347.485 C 409.205 349.751, 393.954 353.251, 390 352.686 C 388.075 352.411, 382.900 350.459, 378.500 348.349 C 374.100 346.239, 370.094 344.337, 369.597 344.122 C 369.088 343.902, 368.974 345.423, 369.336 347.616 M 265.065 356.935 C 261.895 360.105, 262.530 361.905, 267.616 364.154 C 271.868 366.035, 272.105 366.324, 270.615 367.813 C 269.126 369.303, 268.762 369.290, 265.999 367.659 C 263.551 366.213, 263 366.151, 263 367.321 C 263 369.406, 265.333 371.017, 269.278 371.658 C 272.124 372.120, 273.021 371.807, 274.367 369.887 C 277.204 365.836, 276.456 364.021, 271 361.716 C 264.763 359.081, 264.530 357.552, 270.500 358.448 C 273.289 358.866, 275 358.741, 275 358.120 C 275 356.825, 274.197 356.385, 270.315 355.552 C 267.832 355.020, 266.675 355.325, 265.065 356.935 M 242 362.418 C 242 365.948, 241.765 369.448, 241.479 370.195 C 241.070 371.260, 242.584 371.578, 248.479 371.668 C 255.230 371.771, 256 371.589, 256 369.891 C 256 368.288, 255.238 368, 251 368 C 246.667 368, 246 367.733, 246 366 C 246 364.268, 246.703 363.985, 251.250 363.890 L 256.500 363.781 252.109 362.919 C 249.694 362.444, 247.332 362.295, 246.859 362.587 C 246.387 362.879, 246 362.191, 246 361.059 C 246 359.255, 246.619 359, 251 359 C 254.778 359, 256 358.633, 256 357.500 C 256 356.310, 254.556 356, 249 356 L 242 356 242 362.418 M 389.500 357.562 C 380.293 359.552, 372.532 362.526, 372.207 364.188 C 371.960 365.449, 374.525 365.793, 388.410 366.362 C 405.937 367.081, 413 366.540, 413 364.481 C 413 363.283, 410.349 361.960, 400 357.990 C 396.025 356.466, 394.801 356.416, 389.500 357.562 M 771.073 359.635 C 768.456 362.961, 768.429 366.429, 771 369 C 774.761 372.761, 783 370.472, 783 365.666 C 783 363.463, 780.590 359.176, 778.558 357.765 C 776.386 356.257, 773.080 357.083, 771.073 359.635 M 736.849 358.750 C 736.766 359.163, 736.595 360.850, 736.469 362.500 C 736.343 364.150, 735.909 366.512, 735.504 367.750 C 734.886 369.635, 735.132 370, 737.014 370 C 739.042 370, 739.204 369.643, 738.669 366.350 L 738.077 362.700 741.038 365.537 C 743.362 367.763, 744 368.011, 744 366.687 C 744 365.759, 744.423 365, 744.941 365 C 746.573 365, 747.218 367.032, 746.038 368.455 C 745.187 369.479, 745.204 370.008, 746.103 370.564 C 746.783 370.984, 747.834 370.580, 748.527 369.632 C 749.880 367.782, 751.373 360.039, 750.537 359.204 C 749.567 358.234, 745 360.935, 745 362.479 C 745 363.315, 744.550 364, 744 364 C 743.450 364, 743 363.550, 743 363 C 743 360.628, 737.268 356.668, 736.849 358.750 M 416.732 385.979 C 415.760 386.926, 412.610 388.965, 409.732 390.510 C 392.979 399.501, 381 407.240, 381 409.071 C 381 410.132, 381.230 411, 381.511 411 C 381.792 411, 385.618 408.746, 390.014 405.991 C 403.289 397.672, 418.130 389, 419.093 389 C 423.379 389, 409.693 399.258, 397.014 405.550 C 393.997 407.048, 389.817 409.353, 387.727 410.672 C 385.636 411.992, 383.492 412.804, 382.963 412.477 C 381.200 411.387, 381.970 415.692, 384 418.273 C 385.100 419.671, 386 421.107, 386 421.463 C 386 422.332, 396.073 438, 396.631 438 C 396.873 438, 396.563 437.052, 395.943 435.893 C 395.322 434.734, 395.194 433.430, 395.657 432.995 C 397.896 430.896, 419.937 420, 419.467 421.225 C 419.170 421.999, 414.421 426.817, 408.913 431.933 C 402.705 437.698, 399.018 441.854, 399.213 442.867 C 399.386 443.765, 399.890 444.420, 400.334 444.322 C 401.706 444.019, 433.182 412.849, 432.652 412.319 C 432.081 411.748, 424.927 414.750, 406.877 423.136 C 399.935 426.361, 393.522 429, 392.627 429 C 390.362 429, 390.583 426.267, 392.908 425.529 C 393.958 425.196, 398.796 422.403, 403.658 419.322 C 412.658 413.621, 423.398 409, 427.647 409 C 430.309 409, 430.684 407.812, 428.575 406.062 C 427.045 404.792, 420 388.687, 420 386.459 C 420 384.317, 418.642 384.117, 416.732 385.979 M 594.408 392.094 C 593.808 392.867, 592.584 395.387, 591.689 397.692 C 590.104 401.777, 590.116 401.902, 592.167 402.553 C 593.325 402.921, 596.181 404.634, 598.513 406.361 C 604.141 410.527, 611.716 414.678, 621.648 419.036 C 628.572 422.075, 629.654 422.867, 628.848 424.306 C 628.327 425.238, 627.397 426, 626.782 426 C 625.436 426, 601.445 412.988, 594.750 408.626 C 592.138 406.925, 589.992 404.850, 589.982 404.016 C 589.972 403.182, 588.603 404.969, 586.940 407.986 C 585.277 411.003, 584.299 413.600, 584.767 413.756 C 586.091 414.197, 599.391 421.981, 611.423 429.358 C 618.239 433.536, 622.699 435.701, 623.286 435.114 C 624.824 433.576, 623.445 432.417, 613.741 427.088 C 608.659 424.296, 602.217 420.547, 599.427 418.756 C 596.636 416.965, 592.670 414.426, 590.613 413.114 C 588.254 411.609, 587.223 410.377, 587.821 409.779 C 588.420 409.180, 590.317 409.807, 592.959 411.474 C 595.263 412.929, 601.727 416.518, 607.324 419.450 C 612.921 422.382, 619.525 425.854, 622 427.166 L 626.500 429.551 629.082 425.526 L 631.665 421.500 629.160 419.320 C 627.782 418.121, 624.595 416.378, 622.078 415.446 C 615.649 413.068, 601.087 405.248, 597.503 402.250 C 594.468 399.711, 592.342 396, 593.923 396 C 594.395 396, 598.971 398.751, 604.093 402.114 C 609.214 405.477, 616.874 409.924, 621.115 411.997 C 629.198 415.947, 633.153 418.373, 632.744 419.129 C 632.610 419.377, 633.288 418.724, 634.250 417.679 C 635.212 416.634, 636 415.415, 636 414.971 C 636 414.526, 631.612 412.027, 626.250 409.416 C 620.888 406.805, 615.375 404.064, 614 403.324 C 612.625 402.584, 608.038 400.147, 603.808 397.908 C 599.577 395.669, 595.977 393.129, 595.808 392.263 C 595.547 390.929, 595.333 390.903, 594.408 392.094 M 413 399.368 C 408.875 402.220, 402.575 406.296, 399 408.427 C 390.156 413.698, 383.551 420, 386.869 420 C 387.348 420, 389.935 418.262, 392.619 416.137 C 395.304 414.012, 399.035 411.488, 400.911 410.528 C 402.787 409.568, 405.487 407.691, 406.911 406.357 C 410.248 403.231, 416.892 399.316, 420.317 398.456 C 423.258 397.719, 423.666 396.794, 421.750 395.214 C 420.840 394.463, 418.461 395.592, 413 399.368 M 409.957 408.280 C 404.756 411.787, 397.688 416.187, 394.250 418.059 C 388.906 420.968, 386.555 423, 388.532 423 C 388.825 423, 394.787 419.780, 401.782 415.845 C 408.777 411.909, 416.975 407.910, 420 406.957 C 426.078 405.043, 427.302 402.676, 422.457 402.202 C 420.097 401.971, 417.295 403.333, 409.957 408.280 M 447.686 431.820 C 447.379 433.353, 445.572 436.921, 443.670 439.747 C 441.768 442.573, 438.733 447.499, 436.925 450.693 C 433.369 456.974, 428.953 463.299, 427.750 463.833 C 425.910 464.651, 427.499 466.093, 434.435 469.900 C 438.524 472.144, 442.151 474.435, 442.494 474.990 C 443.426 476.499, 445.018 476.209, 444.416 474.641 C 444.129 473.893, 445.916 470.328, 448.387 466.719 C 450.858 463.110, 453.824 458.209, 454.978 455.828 L 457.076 451.500 453.967 455 C 452.257 456.925, 449.070 461.538, 446.885 465.250 C 444.131 469.928, 442.311 472, 440.956 472 C 437.752 472, 437.328 472.982, 449.978 451.114 C 452.328 447.052, 455.795 442.019, 457.682 439.930 C 460.972 436.289, 461.032 436.087, 459.123 435.066 C 457.353 434.119, 456.402 434.968, 450.520 442.750 C 446.883 447.563, 442.278 454.875, 440.288 459 C 436.392 467.072, 435.488 468.124, 433.200 467.247 C 431.914 466.753, 431.926 466.527, 433.293 465.527 C 434.159 464.894, 436.900 460.113, 439.385 454.902 C 444.727 443.697, 450.911 434, 452.714 434 C 454.874 434, 454.154 432.522, 451.122 430.731 C 448.252 429.036, 448.242 429.039, 447.686 431.820 M 557.540 439.648 C 558.449 441.767, 560.093 446.190, 561.194 449.477 C 562.296 452.764, 564.953 459.861, 567.098 465.247 C 569.244 470.633, 571 475.706, 571 476.520 C 571 477.334, 571.423 478, 571.941 478 C 573.921 478, 574.005 475.928, 572.173 472.284 C 571.127 470.203, 569.721 466.700, 569.049 464.500 C 567.895 460.722, 566.559 457.445, 563.339 450.500 C 561.965 447.536, 561.982 447.542, 564.724 450.946 C 566.251 452.842, 570.538 457.601, 574.250 461.522 C 577.962 465.443, 581 469.153, 581 469.767 C 581 472.036, 583.218 472.144, 585.514 469.987 L 587.881 467.764 583.099 463.984 C 580.469 461.905, 576.558 458.095, 574.409 455.517 C 567.478 447.206, 557.761 436.510, 556.811 436.148 C 556.303 435.954, 556.631 437.529, 557.540 439.648 M 462.392 445.282 C 460.133 448.702, 457.574 454.200, 456.705 457.500 C 455.836 460.800, 454.635 465.392, 454.036 467.705 C 453.437 470.017, 451.753 473.329, 450.293 475.064 L 447.638 478.219 450.069 480.087 C 453.656 482.844, 455 482.472, 455 478.722 C 455 474.841, 458.352 464.305, 463.953 450.585 C 466.179 445.131, 468 440.294, 468 439.835 C 468 437.772, 466.194 439.527, 462.392 445.282 M 511.624 449.539 C 511.281 450.432, 511 453.540, 511 456.444 C 511 459.349, 509.880 467.299, 508.511 474.112 C 505.064 491.269, 505.145 491, 503.389 491 C 502.001 491, 501.856 488.727, 502.158 471.652 C 502.413 457.216, 502.845 451.888, 503.860 450.667 C 505.086 449.191, 504.816 449.053, 501.115 449.265 C 497.274 449.485, 496.008 450.268, 497.750 451.346 C 498.163 451.601, 498.500 461.078, 498.500 472.405 L 498.500 493 503.250 493 L 508 493 508 489.393 C 508 484.906, 511.005 467.786, 511.984 466.697 C 512.711 465.889, 515.368 478.018, 516.595 487.750 C 517.228 492.767, 517.391 493, 520.251 493 C 522.783 493, 523.055 492.771, 522.015 491.518 C 520.869 490.138, 516.350 469.870, 513.872 455 C 512.647 447.651, 512.492 447.275, 511.624 449.539 M 251 507.960 C 238.129 508.408, 235.500 508.754, 235.500 510 C 235.500 512.034, 255.217 512.345, 327.750 511.453 C 371.068 510.920, 384 510.480, 384 509.537 C 384 508.651, 379.649 508.133, 368.250 507.660 C 350.683 506.931, 274.982 507.125, 251 507.960 M 639.010 508.892 C 637.364 509.351, 636.930 509.839, 637.730 510.333 C 639.271 511.286, 780.566 511.437, 784.250 510.490 C 785.763 510.101, 787 509.382, 787 508.892 C 787 507.847, 642.762 507.848, 639.010 508.892 M 470.156 512.324 C 471.328 513.215, 471.544 514.064, 470.894 515.225 C 469.622 517.498, 470.770 517.975, 478.165 518.244 C 481.649 518.371, 484.831 518.931, 485.235 519.488 C 485.673 520.091, 485.982 519.894, 486 519 C 486.027 517.673, 486.139 517.672, 486.974 518.992 C 487.685 520.117, 488.200 520.200, 489.068 519.332 C 489.878 518.522, 491.057 518.472, 493.039 519.164 C 494.590 519.704, 497.128 519.956, 498.679 519.723 C 501.229 519.340, 501.164 519.282, 498 519.118 C 496.075 519.018, 493.626 518.276, 492.559 517.468 C 490.667 516.037, 490.675 516, 492.868 516 C 494.213 516, 494.852 516.431, 494.456 517.071 C 494.023 517.772, 494.953 518.031, 497.147 517.821 C 498.991 517.644, 500.500 517.050, 500.500 516.500 C 500.500 515.006, 475.875 513.076, 474.058 514.427 C 472.988 515.224, 472.802 515.191, 473.336 514.300 C 473.757 513.598, 473.241 512.664, 472.094 512.050 C 469.397 510.607, 468.134 510.785, 470.156 512.324 M 271.672 544.250 C 269.920 549.159, 263.326 564.087, 256.542 578.500 C 253.953 584, 249.584 594.125, 246.833 601 C 240.705 616.316, 238.786 619.530, 234.973 620.860 C 228.960 622.956, 231.796 624, 243.500 624 C 249.825 624, 255 623.587, 255 623.082 C 255 622.576, 253.425 621.190, 251.500 620 C 249.575 618.810, 248.010 617.311, 248.023 616.668 C 248.035 616.026, 249.498 611.902, 251.273 607.505 C 255.089 598.052, 254.536 598.295, 272.627 598.118 L 284.755 598 287.876 606.750 C 292 618.312, 292.159 620.193, 289.074 620.956 C 287.740 621.285, 286.483 622.051, 286.281 622.657 C 286.026 623.421, 290.222 623.794, 299.968 623.873 L 314.022 623.987 309.672 619.744 C 306.361 616.513, 304.429 613.232, 301.580 606 C 294.853 588.920, 281.796 557.600, 279.486 553 C 278.242 550.525, 276.653 546.587, 275.954 544.250 C 275.255 541.913, 274.347 540, 273.936 540 C 273.524 540, 272.506 541.913, 271.672 544.250 M 455 544 C 453.625 544.440, 442.038 544.845, 429.250 544.900 C 413.975 544.966, 406 545.355, 406 546.034 C 406 546.602, 407.531 547.971, 409.402 549.075 C 411.273 550.179, 413.044 552.076, 413.338 553.291 C 413.632 554.506, 414.171 566.525, 414.535 580 C 415.255 606.628, 414.354 618.846, 411.433 622.074 C 409.717 623.971, 410.088 624, 435.678 624 L 461.665 624 463.470 614.163 C 464.463 608.752, 465.072 603.716, 464.824 602.971 C 464.575 602.226, 462.579 604.951, 460.388 609.025 C 457.575 614.254, 455.682 616.634, 453.952 617.117 C 449.534 618.349, 429.503 618.103, 428.200 616.800 C 426.851 615.451, 426.695 609.602, 427.650 596.154 L 428.299 587 434.585 587 C 443.177 587, 445.538 588.075, 447.071 592.688 L 448.338 596.500 449.132 593.566 C 450.411 588.838, 451.363 573.999, 450.388 574.007 C 449.899 574.011, 448.465 575.534, 447.200 577.392 C 444.494 581.366, 441.054 582.332, 432.887 581.408 L 427.251 580.770 426.634 575.635 C 425.829 568.933, 425.837 560.467, 426.655 554.502 L 427.310 549.725 436.536 550.275 C 441.877 550.594, 447.025 551.479, 448.762 552.377 C 452.700 554.414, 456.961 559.557, 457.678 563.140 C 457.993 564.713, 458.710 566, 459.272 566 C 459.935 566, 460.066 563.314, 459.647 558.349 C 459.291 554.141, 459 548.966, 459 546.849 C 459 542.787, 458.934 542.740, 455 544 M 734.317 543.986 C 722.503 546.491, 711.396 555.388, 705.742 566.873 C 702.709 573.034, 702.500 574.135, 702.500 583.979 C 702.500 594.106, 702.640 594.787, 706.250 602.173 C 710.508 610.883, 716.638 616.969, 725.859 621.642 C 731.001 624.247, 732.430 624.500, 742.016 624.500 C 751.842 624.500, 752.961 624.288, 759.091 621.273 C 767.587 617.094, 775.987 608.373, 780.267 599.288 C 783.058 593.365, 783.458 591.481, 783.411 584.500 C 783.324 571.488, 777.150 559.427, 766.303 551.078 C 758.241 544.873, 744.500 541.826, 734.317 543.986 M 324.374 556.275 C 323.332 570.320, 324.460 571.347, 329.816 561.226 C 331.639 557.780, 334.165 554.283, 335.428 553.455 C 336.691 552.628, 340.642 551.678, 344.208 551.345 L 350.691 550.740 351.337 556.120 C 352.156 562.945, 352.016 606.695, 351.151 614 C 350.516 619.365, 350.382 619.559, 345.709 621.876 C 343.074 623.182, 341.049 624.329, 341.209 624.423 C 342.172 624.991, 376 623.663, 376 623.057 C 376 622.650, 374.253 621.793, 372.119 621.154 C 369.984 620.514, 367.723 619.371, 367.095 618.614 C 365.741 616.983, 364.653 558.910, 365.892 554.367 C 366.656 551.565, 366.824 551.502, 373.333 551.579 C 381.677 551.679, 384.131 552.988, 387.468 559.118 C 388.929 561.803, 390.547 564, 391.062 564 C 392.123 564, 392.225 548.308, 391.180 546 C 390.596 544.711, 385.906 544.500, 357.874 544.500 L 325.248 544.500 324.374 556.275 M 481.476 547.440 C 483.041 548.573, 485.421 550.417, 486.765 551.538 L 489.207 553.575 489.336 582.538 C 489.472 613.218, 488.788 619.298, 485.070 620.478 C 484.033 620.807, 482.932 621.734, 482.624 622.538 C 482.157 623.754, 483.584 624, 491.115 624 C 500.666 624, 502.253 622.914, 496.676 620.195 L 494 618.891 494 594.570 C 494 581.194, 493.715 568.731, 493.368 566.875 C 492.913 564.449, 493.044 563.786, 493.834 564.516 C 495.717 566.258, 514.648 610.150, 518.520 621.750 C 519.632 625.083, 520.535 623.527, 535.412 592.645 C 539.613 583.925, 543.787 574.138, 544.689 570.895 C 545.590 567.653, 546.646 565, 547.035 565 C 547.953 565, 548.790 577.450, 549.607 603.250 L 550.265 624 554.993 624 C 557.593 624, 561.842 624.291, 564.435 624.646 L 569.149 625.292 568.824 621.896 C 568.611 619.664, 567.814 618.198, 566.500 617.620 C 564.568 616.770, 564.491 615.644, 564.224 584.285 L 563.948 551.828 566.474 549.842 C 567.863 548.749, 569 547.179, 569 546.352 C 569 545.073, 567.624 544.954, 559.750 545.551 C 549.365 546.338, 549 546.449, 549 548.811 C 549 549.743, 546.768 554.297, 544.040 558.932 C 541.312 563.567, 538.789 568.741, 538.433 570.430 C 537.578 574.483, 525.262 600, 524.159 600 C 522.804 600, 514.329 581.163, 512.521 574.131 C 510.805 567.455, 504.350 551.710, 501.625 547.550 C 500.092 545.211, 499.629 545.124, 489.331 545.250 L 478.629 545.381 481.476 547.440 M 605.687 545.782 L 600.874 546.115 604.187 548.337 C 607.772 550.742, 607.372 549.230, 609.944 570.052 C 611.041 578.938, 611.391 614.942, 610.415 618.576 C 610.108 619.719, 608.508 621.450, 606.860 622.424 C 605.211 623.398, 604.086 624.420, 604.361 624.694 C 604.635 624.969, 611.304 624.839, 619.180 624.407 C 627.056 623.974, 632.375 623.368, 631 623.060 C 624.980 621.711, 624.615 620.992, 624.809 610.857 C 624.908 605.711, 625.246 599.870, 625.560 597.878 L 626.132 594.257 638.392 594.378 L 650.651 594.500 656.575 590.865 C 659.834 588.865, 663.962 585.343, 665.750 583.037 L 669 578.845 669 586.731 C 669 598.027, 672.159 601.265, 676.587 594.508 C 678.493 591.598, 679.832 571.247, 678.562 564.477 C 677.554 559.105, 669.209 551.018, 661.469 547.913 C 655.801 545.638, 654.366 545.516, 633 545.483 C 620.625 545.464, 608.334 545.598, 605.687 545.782 M 732.637 550.465 C 721.839 554.314, 714.005 571.212, 716.048 586.250 C 717.935 600.143, 727.671 616.416, 735.677 619.058 C 740.974 620.807, 749.433 619.641, 754.162 616.511 C 765.463 609.033, 771.352 587.134, 766.546 570.459 C 763.075 558.415, 758.215 553.593, 746.460 550.532 C 739.378 548.687, 737.648 548.678, 732.637 550.465 M 628.900 550.660 C 627.608 551.006, 627.180 553.203, 626.671 562.094 C 625.917 575.264, 626.723 584.526, 628.771 586.225 C 629.657 586.960, 634.369 587.611, 640.426 587.835 C 650.298 588.201, 650.690 588.132, 653.841 585.480 C 659.088 581.065, 661.439 575.559, 661.412 567.748 C 661.382 559.445, 659.625 556.639, 652.020 552.750 C 647.376 550.376, 645.539 550.016, 638.571 550.116 C 634.132 550.180, 629.780 550.425, 628.900 550.660 M 268.451 565.250 C 268.075 566.487, 265.613 572.225, 262.979 578 C 260.345 583.775, 257.874 589.570, 257.487 590.877 L 256.785 593.254 268.862 592.824 C 275.505 592.587, 281.236 592.097, 281.597 591.736 C 281.958 591.375, 279.722 585.208, 276.627 578.032 C 273.532 570.856, 271 564.538, 271 563.992 C 271 562.093, 269.130 563.015, 268.451 565.250 M 544.500 644.677 C 542.399 644.941, 539.961 646.733, 536.363 650.656 C 533.427 653.858, 530.750 655.963, 530.113 655.570 C 529.501 655.192, 529 652.659, 529 649.941 C 529 645.337, 528.829 645, 526.500 645 L 524 645 524 657.893 C 524 668.727, 524.253 670.883, 525.582 671.393 C 529.172 672.771, 529.719 672.132, 529.238 667.130 C 528.947 664.101, 529.199 661.995, 529.903 661.560 C 530.557 661.156, 533.367 663.211, 536.561 666.430 C 540.959 670.864, 542.735 672, 545.266 672 L 548.446 672 541.723 665.225 C 538.025 661.499, 535 658.143, 535 657.767 C 535 657.392, 538.150 654.572, 542 651.500 C 548.135 646.605, 550.626 643.675, 548.250 644.150 C 547.837 644.232, 546.150 644.469, 544.500 644.677 M 390.779 645.750 C 390.593 646.163, 390.603 652.237, 390.802 659.250 L 391.163 672 393.691 672 C 396.201 672, 396.216 671.949, 395.843 664.572 C 395.411 656.012, 396.418 655.945, 400.629 664.254 C 401.988 666.937, 403.641 668.965, 404.301 668.760 C 404.960 668.555, 407.173 665.262, 409.218 661.443 L 412.937 654.500 412.968 663.250 C 413 671.908, 413.026 672, 415.500 672 L 418 672 418 658.500 C 418 647.327, 417.748 645, 416.539 645 C 414.538 645, 411.514 648.427, 407.964 654.718 C 406.324 657.623, 404.648 660, 404.240 660 C 403.831 660, 402.372 657.878, 400.998 655.283 C 396.746 647.256, 392.070 642.893, 390.779 645.750 M 449 646.294 C 449 647.005, 446.304 652.968, 443.009 659.544 C 439.714 666.120, 437.014 671.642, 437.009 671.816 C 437.004 671.990, 438.220 671.990, 439.710 671.816 C 441.650 671.590, 442.586 670.789, 443.002 669 C 443.541 666.683, 444.069 666.478, 450.221 666.206 C 456.826 665.913, 456.860 665.926, 457.179 668.706 C 457.435 670.934, 458.006 671.500, 460 671.500 C 461.677 671.500, 462.410 671.006, 462.226 670 C 461.512 666.089, 451.458 645, 450.307 645 C 449.588 645, 449 645.582, 449 646.294 M 567.991 653.143 C 567.987 657.739, 567.699 663.862, 567.352 666.750 L 566.721 672 576.861 672 C 586.142 672, 587 671.840, 587 670.107 C 587 667.641, 585.125 667, 577.918 667 L 572 667 571.998 663.750 L 571.996 660.500 578.579 660.839 C 584.987 661.169, 585.154 661.116, 584.831 658.839 C 584.523 656.659, 584.074 656.507, 578.250 656.597 C 572.024 656.693, 572 656.682, 572 653.847 L 572 651 579 651 C 585.800 651, 586 650.929, 586 648.500 C 586 646.058, 585.828 646, 578.582 646 C 574.502 646, 570.452 645.727, 569.582 645.393 C 568.218 644.870, 567.999 645.935, 567.991 653.143 M 605.999 648.250 C 606 650.842, 606.258 651, 610.500 651 L 615 651 615 661.500 L 615 672 617.594 672 L 620.187 672 619.844 661.999 L 619.500 651.998 624.250 651.999 C 628.113 652, 628.997 651.673, 628.985 650.250 C 628.954 646.687, 627.595 646.198, 616.749 645.848 L 605.998 645.500 605.999 648.250 M 481.393 647.582 C 481.727 648.452, 482 654.302, 482 660.582 L 482 672 484.628 672 C 487.104 672, 487.221 671.783, 486.660 668.250 C 486.332 666.188, 486.438 663.898, 486.895 663.163 C 488.328 660.857, 492.303 662.302, 494.698 666 C 498.265 671.507, 498.883 672, 502.214 672 L 505.349 672 503.299 669.750 C 502.172 668.513, 500.711 666.457, 500.053 665.181 C 499.007 663.155, 499.181 662.562, 501.428 660.479 C 504.190 657.919, 504.685 654.597, 502.890 650.657 C 501.274 647.112, 497.921 646, 488.846 646 C 481.907 646, 480.870 646.220, 481.393 647.582 M 269.083 660.974 C 242.818 661.375, 234.567 661.796, 234.249 662.750 C 233.932 663.704, 236.750 664.004, 246.167 664.017 C 315.689 664.111, 366.396 663.874, 367.079 663.451 C 372.116 660.338, 348.987 659.753, 269.083 660.974 M 648.589 661.370 C 649.082 662.657, 650.716 663.013, 656.357 663.063 C 756.340 663.938, 786 663.958, 786 663.151 C 786 661.541, 772.558 661.057, 709.232 660.388 C 652.848 659.792, 648.013 659.870, 648.589 661.370 M 440.240 732.163 L 440.500 776.500 437.750 778.839 C 434.355 781.726, 434.278 783.929, 437.452 787.354 C 441.149 791.343, 445.045 790.747, 447.602 785.803 C 448.983 783.131, 448.974 782.610, 447.507 780.370 C 446.614 779.007, 445.253 777.651, 444.482 777.355 C 443.300 776.901, 443.164 770.380, 443.608 735.659 C 444.116 695.909, 443.768 689.089, 441.185 688.228 C 440.253 687.918, 440.038 697.907, 440.240 732.163 M 475.032 725.750 C 475.004 759.097, 475.192 764, 476.500 764 C 478.730 764, 478.760 692.387, 476.532 689.441 C 475.232 687.723, 475.060 691.899, 475.032 725.750 M 507.650 692.711 C 507.310 695.345, 506.994 726.114, 506.947 761.087 C 506.875 814.461, 507.094 825.222, 508.308 828.087 L 509.754 831.500 510.642 829 C 511.999 825.181, 510.779 688.758, 509.384 688.294 C 508.717 688.072, 508.019 689.850, 507.650 692.711 M 541.693 706.667 C 540.896 730.623, 541.907 764.198, 543.409 763.697 C 544.165 763.445, 544.580 751.767, 544.762 725.667 C 544.979 694.514, 544.790 688, 543.669 688 C 542.600 688, 542.183 691.934, 541.693 706.667 M 574.654 700.157 C 573.833 715.416, 573.943 740.838, 574.917 761 C 575.663 776.458, 575.659 776.505, 573.333 778.333 C 570.233 780.769, 570.360 784.503, 573.646 787.548 C 576.788 790.460, 578.098 790.588, 580.802 788.250 C 584.462 785.085, 584.512 782.281, 580.967 778.969 L 577.782 775.994 578.017 735.247 C 578.300 686.283, 578.349 688, 576.654 688 C 575.635 688, 575.148 690.958, 574.654 700.157 M 435.904 794.330 C 427.752 796.605, 421.841 802.849, 420.084 811.043 C 418.109 820.254, 423.152 830.139, 432.006 834.410 C 440.144 838.336, 442.831 838.425, 449.697 834.994 C 456.125 831.782, 459.645 827.668, 461.943 820.685 C 465.427 810.096, 455.668 795.035, 444.363 793.554 C 442.239 793.275, 438.432 793.624, 435.904 794.330 M 567.907 796.307 C 562.461 799.158, 557.365 806.383, 556.437 812.569 C 554.698 824.169, 565.959 837.022, 577.833 836.990 C 585.531 836.970, 596.019 829.759, 597.618 823.386 C 597.957 822.034, 598.043 818.268, 597.808 815.018 C 597.453 810.115, 596.691 808.121, 593.334 803.305 C 591.109 800.112, 587.761 796.713, 585.894 795.752 C 581.025 793.243, 573.304 793.482, 567.907 796.307 M 450.453 800.853 C 454.413 805.008, 454.551 805.901, 450.934 803.965 C 448.414 802.616, 448.473 804.060, 451.073 807.365 C 453.435 810.369, 452.647 810.849, 449.618 808.250 C 447.588 806.508, 447.587 806.513, 449.312 809.250 C 450.807 811.621, 450.836 812, 449.523 812 C 447.517 812, 447.596 812.947, 449.750 814.721 C 451.407 816.087, 451.403 816.133, 449.676 815.585 C 447.517 814.900, 444.560 817.479, 445.591 819.147 C 446.037 819.870, 445.873 820.039, 445.155 819.595 C 444.520 819.203, 444 819.321, 444 819.858 C 444 820.394, 444.563 821.072, 445.250 821.364 C 445.938 821.656, 444.722 821.745, 442.548 821.563 C 438.867 821.254, 438.730 821.333, 440.548 822.719 C 442.410 824.138, 442.385 824.173, 440 823.477 C 436.637 822.495, 431.956 820.127, 429.436 818.133 C 428.300 817.235, 429.200 818.247, 431.436 820.381 L 435.500 824.263 431.316 822.145 C 429.015 820.980, 426.427 819.021, 425.566 817.791 C 424.705 816.561, 424 816.044, 424 816.643 C 424 818.580, 427.832 822.668, 431.209 824.332 C 433.019 825.224, 433.773 825.965, 432.885 825.977 C 431.997 825.990, 430.060 825.049, 428.582 823.886 C 424.501 820.676, 424.435 822.297, 428.501 825.867 C 432.778 829.622, 431.481 830.117, 427.077 826.411 C 425.385 824.987, 424 824.357, 424 825.011 C 424 827.222, 430.471 832.653, 435.284 834.481 C 439.512 836.087, 440.541 836.141, 444.144 834.952 C 448.759 833.429, 457.350 826.157, 459.542 821.920 C 461.246 818.623, 461.435 812.547, 459.964 808.328 C 459.395 806.693, 456.807 803.770, 454.214 801.831 C 447.129 796.532, 446.072 796.257, 450.453 800.853 M 585.207 803.073 C 589.193 806.355, 593.618 812.715, 592.614 813.719 C 592.276 814.057, 592 813.843, 592 813.243 C 592 811.456, 586.944 806, 585.289 806 C 584.207 806, 584.043 806.368, 584.733 807.250 C 586.643 809.691, 586.920 813, 585.215 813 C 583.908 813, 583.970 813.267, 585.559 814.468 C 587.370 815.838, 587.379 815.939, 585.691 815.968 C 584.696 815.986, 584.152 816.437, 584.482 816.971 C 584.812 817.505, 583.896 818.239, 582.446 818.603 C 579.162 819.427, 581.040 820.931, 585.500 821.048 C 588.041 821.115, 588.194 821.251, 586.500 821.937 C 582.619 823.510, 572.267 824.214, 570.097 823.052 C 568.746 822.329, 568 822.291, 568 822.946 C 568 823.505, 569.146 824.250, 570.547 824.601 C 571.947 824.953, 572.857 825.476, 572.569 825.764 C 572.281 826.053, 570.049 825.527, 567.610 824.595 C 564.175 823.283, 562.808 822.067, 561.551 819.201 C 560.089 815.868, 559.987 815.798, 560.525 818.500 C 561.303 822.407, 565.063 826.152, 569.754 827.692 L 573.500 828.921 570 828.363 C 568.075 828.055, 565.445 827.135, 564.156 826.317 C 561.908 824.892, 561.841 824.926, 562.524 827.165 C 563.658 830.882, 565.887 832.802, 571.063 834.521 C 577.252 836.577, 581.268 835.548, 588.568 830.036 C 596.972 823.691, 598.890 817.765, 595.380 808.991 C 593.664 804.703, 592.418 803.732, 585.700 801.448 L 581.500 800.020 585.207 803.073 M 499 835.084 C 493.382 837.631, 490.365 840.408, 487.817 845.378 C 483.515 853.770, 484.538 865.126, 490.175 871.547 C 493.357 875.171, 494.915 875.580, 493.180 872.336 C 492.640 871.326, 491.972 869.065, 491.696 867.311 C 491.420 865.558, 490.858 863.533, 490.447 862.811 C 490.036 862.090, 491.335 863.044, 493.335 864.932 C 495.334 866.819, 497.277 868.057, 497.652 867.682 C 498.027 867.307, 497.860 867, 497.282 867 C 496.703 867, 495.438 865.763, 494.471 864.250 L 492.712 861.500 495.106 863.559 C 496.423 864.692, 498.625 866.176, 500 866.858 C 501.375 867.540, 503.790 868.801, 505.368 869.660 C 506.945 870.519, 510.095 871.382, 512.368 871.577 C 514.640 871.773, 515.600 871.708, 514.500 871.434 C 505.895 869.287, 503.909 868.557, 502.527 867.030 C 501.059 865.408, 501.307 865.414, 506.227 867.113 C 512.646 869.331, 517.071 869.629, 512.500 867.536 C 509.561 866.190, 509.632 866.158, 516 865.931 C 519.575 865.804, 521.295 865.516, 519.823 865.291 C 518.351 865.066, 516.560 864.174, 515.843 863.311 C 514.687 861.918, 514.934 861.815, 518.020 862.403 L 521.500 863.065 518.516 861.378 C 515.753 859.816, 515.679 859.633, 517.516 858.916 C 518.607 858.489, 520.625 858.075, 522 857.994 C 524.262 857.862, 524.167 857.720, 521 856.500 C 519.021 855.738, 518.286 855.119, 519.309 855.076 C 520.404 855.030, 520.838 854.548, 520.410 853.854 C 519.905 853.037, 520.529 852.916, 522.584 853.432 L 525.467 854.155 522.484 851.907 C 517.755 848.342, 517.247 847.667, 519.751 848.271 C 520.990 848.569, 521.751 848.405, 521.442 847.907 C 520.674 846.663, 522.696 846.767, 525.186 848.100 C 526.692 848.905, 527.057 848.902, 526.553 848.085 C 526.174 847.473, 524.095 846.069, 521.932 844.965 C 519.769 843.862, 518 842.696, 518 842.375 C 518 842.053, 519.787 841.960, 521.972 842.169 C 525.749 842.529, 525.880 842.448, 524.656 840.524 C 523.948 839.411, 520.956 837.263, 518.005 835.750 C 511.488 832.409, 505.373 832.195, 499 835.084 M 437.068 844.904 C 433.001 850.617, 435.481 857, 441.768 857 C 444.445 857, 449 852.872, 449 850.445 C 449 848.370, 442.715 842, 440.668 842 C 439.826 842, 438.206 843.307, 437.068 844.904 M 573.073 844.635 C 569.890 848.681, 569.982 852.573, 573.325 855.228 C 576.382 857.656, 579.679 857.412, 582.545 854.545 C 585.905 851.185, 585.628 848.758, 581.465 845.104 C 577.151 841.316, 575.745 841.237, 573.073 844.635 M 504.706 891.849 C 502.460 894.251, 502.227 895.322, 502.219 903.256 C 502.214 908.072, 502.613 912.261, 503.105 912.565 C 503.597 912.869, 504 911.291, 504 909.059 C 504 905.122, 504.101 905, 507.348 905 C 510.283 905, 510.917 904.510, 512.488 901.026 L 514.280 897.052 510.732 893.125 L 507.184 889.198 504.706 891.849" stroke="none" fill="#484848" fill-rule="evenodd"/>
</svg>